<svg xmlns="http://www.w3.org/2000/svg" viewBox="0 0 500 500"><g id="freepik--background-complete--inject-265"><rect x="294.36" y="55.35" width="77.81" height="77.81" style="fill:#fff"></rect><path d="M290.32,51.3v85.9h85.9V51.3Zm81.85,81.86H294.36V55.35h77.81Z" style="fill:#dbdbdb"></path><rect x="322.8" y="74.32" width="26.9" height="60.64" transform="translate(440.89 -231.61) rotate(90)" style="fill:#ebebeb"></rect><rect x="317.73" y="78.72" width="31.07" height="31.07" transform="translate(427.52 -239.02) rotate(90)" style="fill:#c7c7c7"></rect><rect x="376.22" y="51.3" width="3.32" height="85.91" style="fill:#c7c7c7"></rect><rect x="359.84" y="160.21" width="77.81" height="77.81" style="fill:#fff"></rect><rect x="373.22" y="172.67" width="20.32" height="58.69" style="fill:#c7c7c7"></rect><path d="M355.8,156.17v85.9h85.9v-85.9ZM437.65,238H359.84V160.21h77.81Z" style="fill:#dbdbdb"></path><rect x="383.21" y="183.58" width="31.07" height="31.07" style="fill:#ebebeb"></rect><rect x="441.7" y="156.17" width="3.32" height="85.91" style="fill:#c7c7c7"></rect><path d="M451.64,447.45H397.23c-2.58,0,0-89.55-.05-98.72s19.41-38.42,19.41-43.61,0-51.37,0-51.37h15.56s0,46.18,0,51.36,19.44,34.47,19.44,43.6S454.21,447.45,451.64,447.45Z" style="fill:#dbdbdb"></path><rect x="396.08" y="388.17" width="56.68" height="41.08" style="fill:#ebebeb"></rect><rect x="416.99" y="239.23" width="15.15" height="7.95" style="fill:#c7c7c7"></rect><rect x="419.37" y="247.16" width="10.37" height="6.26" style="fill:#dbdbdb"></rect><rect x="415.34" y="248.26" width="18.16" height="6.38" style="fill:#c7c7c7"></rect><rect x="44.45" y="51.3" width="190.21" height="291.65" style="fill:#dbdbdb"></rect><rect x="54.82" y="62.98" width="80.32" height="129.72" style="fill:#fff"></rect><rect x="143.97" y="62.98" width="80.32" height="129.72" style="fill:#fff"></rect><rect x="54.82" y="201.54" width="80.32" height="129.72" style="fill:#fff"></rect><rect x="143.97" y="201.54" width="80.32" height="129.72" style="fill:#fff"></rect><rect x="44.45" y="51.3" width="45.05" height="396.17" style="fill:#ebebeb"></rect><polygon points="80.96 71.14 81.31 116.25 81.44 161.37 81.68 251.59 81.44 341.82 81.31 386.94 80.96 410.97 80.61 386.94 80.49 341.82 80.25 251.59 80.49 161.37 80.61 116.25 80.96 71.14" style="fill:#fff"></polygon><polygon points="60.28 81.6 60.62 121.88 60.82 162.17 60.99 242.73 60.83 323.3 60.63 363.58 60.28 382.79 59.93 363.58 59.73 323.3 59.56 242.73 59.73 162.17 59.93 121.88 60.28 81.6" style="fill:#fff"></polygon><polygon points="70.62 91.11 70.97 138.28 71.09 185.45 71.33 279.79 71.09 374.12 70.97 400.21 70.62 447.38 70.27 400.21 70.14 374.12 69.91 279.79 70.15 185.45 70.27 138.28 70.62 91.11" style="fill:#fff"></polygon><polygon points="52.58 73.52 52.93 122.88 53.06 172.25 53.3 270.99 53.06 369.72 52.93 398.01 52.58 447.38 52.23 398.01 52.11 369.72 51.87 270.99 52.11 172.25 52.23 122.88 52.58 73.52" style="fill:#fff"></polygon><rect x="189.61" y="51.3" width="45.05" height="396.17" transform="translate(424.27 498.77) rotate(180)" style="fill:#ebebeb"></rect><polygon points="198.15 71.14 198.5 116.25 198.62 161.37 198.86 251.59 198.63 341.82 198.5 386.94 198.15 410.97 197.8 386.94 197.68 341.82 197.44 251.59 197.68 161.37 197.8 116.25 198.15 71.14" style="fill:#fff"></polygon><polygon points="218.84 81.6 219.18 121.88 219.38 162.17 219.55 242.73 219.39 323.3 219.19 363.58 218.84 382.79 218.49 363.58 218.29 323.3 218.12 242.73 218.29 162.17 218.49 121.88 218.84 81.6" style="fill:#fff"></polygon><polygon points="208.49 91.11 208.84 138.28 208.97 185.45 209.21 279.79 208.97 374.12 208.84 400.21 208.49 447.38 208.14 400.21 208.02 374.12 207.78 279.79 208.02 185.45 208.15 138.28 208.49 91.11" style="fill:#fff"></polygon><polygon points="226.53 73.52 226.88 122.88 227 172.25 227.24 270.99 227.01 369.72 226.88 398.01 226.53 447.38 226.18 398.01 226.06 369.72 225.82 270.99 226.06 172.25 226.18 122.88 226.53 73.52" style="fill:#fff"></polygon></g><g id="freepik--Glass--inject-265"><path d="M379.79,375.71v66.48l23.76,5.28H351.31l23.77-5.29V375.69c-13.14-1-24.17-9.77-25.5-27.94-1.42-19.31,5.56-39,5.56-39h44.91s7,19.68,5.55,39C404.26,366.06,393.06,374.84,379.79,375.71Z" style="fill:#ebebeb;opacity:0.5"></path><path d="M401.17,346.88c-1.2,16.26-11.63,23.6-23.58,23.6s-22.38-7.34-23.58-23.6a66.15,66.15,0,0,1,0-8.56h47.24A66.15,66.15,0,0,1,401.17,346.88Z" style="fill:#BA68C8"></path><path d="M401.17,346.88c-1.2,16.26-11.63,23.6-23.58,23.6s-22.38-7.34-23.58-23.6a66.15,66.15,0,0,1,0-8.56h47.24A66.15,66.15,0,0,1,401.17,346.88Z" style="opacity:0.1"></path><path d="M361.79,308.76h4.93s-9.37,26.89-6.9,40.53S368,366.1,368,366.1s-10.59-2.8-12.32-19.36C353.85,329.22,361.79,308.76,361.79,308.76Z" style="fill:#fff;opacity:0.5"></path></g><g id="freepik--Plant--inject-265"><path d="M432.46,367c-4.71,0-14.23-3.7-12.63-6.81s6.51.88,6.71,1c-.14-.22-3.32-6.43-.48-7.51s5.69,1.92,6.4,5.36c.71-3.44,3.5-6.46,6.4-5.36s-.35,7.29-.49,7.51c.21-.12,5.15-4,6.71-1S437.17,367,432.46,367Z" style="fill:#455a64"></path><path d="M456.22,392.35a57,57,0,0,1-1.19,7.72c-1.12,5.06-3,10-5.59,13.25a46.78,46.78,0,0,1-34.06,0c-5.62-7-7.62-21.44-6.82-28.86C410,371.06,418,365.94,425,364.1h0a29.33,29.33,0,0,1,7.44-1c6.81,0,21.81,2.46,23.85,21.31A41.69,41.69,0,0,1,456.22,392.35Z" style="fill:#BA68C8"></path><path d="M432.9,363.15c.19,4.44.3,8.9.39,13.35s.1,8.9.12,13.35-.05,8.9-.18,13.36a108,108,0,0,1-.93,13.32l.17-1.66.1-1.67c.07-1.11.07-2.22.1-3.33.06-2.22.09-4.45.1-6.67q.06-6.68,0-13.35V376.5C432.84,372.05,432.85,367.6,432.9,363.15Z" style="fill:#fff"></path><path d="M430,363.24a55.35,55.35,0,0,0-1.59,6.46c-.45,2.17-.77,4.37-1.05,6.57a125.12,125.12,0,0,0-.91,13.26l0,3.33c0,1.11,0,2.22.06,3.33,0,2.22.2,4.43.3,6.64,0,1.11.15,2.22.25,3.32l.3,3.32.75,6.62c-.36-2.19-.72-4.38-1.05-6.58l-.38-3.32c-.12-1.11-.26-2.21-.33-3.32-.18-2.22-.34-4.44-.39-6.67,0-1.11-.09-2.22-.08-3.34v-3.34a111.91,111.91,0,0,1,1.06-13.31A64,64,0,0,1,430,363.24Z" style="fill:#fff"></path><path d="M426.15,363.79a27.47,27.47,0,0,0-3.37,5.88c-.22.52-.47,1-.67,1.56l-.57,1.6-.28.79c-.09.27-.16.55-.24.82l-.45,1.63A52.8,52.8,0,0,0,419,389.5l.07,3.39.33,3.37.17,1.69c.08.56.19,1.12.29,1.67l.57,3.35a15.84,15.84,0,0,0,.36,1.66l.4,1.65.8,3.31,2,6.5c-.78-2.13-1.53-4.27-2.29-6.42l-.89-3.29-.44-1.65a16,16,0,0,1-.4-1.66l-.64-3.36c-.1-.56-.21-1.12-.3-1.68l-.18-1.71-.36-3.4-.1-3.42a50.8,50.8,0,0,1,1.7-13.55l.49-1.64c.09-.27.17-.54.26-.81l.3-.8.62-1.6c.22-.53.47-1,.71-1.55A26.32,26.32,0,0,1,426.15,363.79Z" style="fill:#fff"></path><path d="M423.32,364.56a25.14,25.14,0,0,0-4.61,5.11,30.37,30.37,0,0,0-3.28,6,35.16,35.16,0,0,0-2.59,13.4c0,1.15.05,2.29.09,3.43s.18,2.29.38,3.42l.26,1.7.35,1.69c.11.56.23,1.12.38,1.68l.42,1.67c.29,1.11.66,2.2,1,3.31l1.16,3.25,1.28,3.21,1.41,3.16a67.09,67.09,0,0,1-5.27-12.8c-.3-1.12-.65-2.23-.87-3.37l-.36-1.7-.28-1.72c-.21-1.14-.28-2.3-.41-3.45s-.15-2.32-.12-3.48A34.61,34.61,0,0,1,415,375.52a29.79,29.79,0,0,1,3.47-6,25.72,25.72,0,0,1,2.24-2.65A18.86,18.86,0,0,1,423.32,364.56Z" style="fill:#fff"></path><path d="M435.62,363.27a65.33,65.33,0,0,1,3.09,13,114,114,0,0,1,1.06,13.31v3.34c0,1.12-.06,2.23-.08,3.34-.05,2.23-.21,4.45-.39,6.67-.07,1.11-.21,2.22-.34,3.32l-.38,3.32c-.32,2.2-.68,4.39-1,6.59l.75-6.63.3-3.32c.09-1.1.21-2.21.25-3.31.1-2.22.28-4.43.3-6.65,0-1.11.08-2.22.06-3.33l0-3.32a127.83,127.83,0,0,0-.91-13.27c-.28-2.2-.61-4.4-1.05-6.57A55.35,55.35,0,0,0,435.62,363.27Z" style="fill:#fff"></path><path d="M439.47,363.82a26,26,0,0,1,3.65,5.76c.24.51.49,1,.71,1.55l.61,1.6.31.8c.09.27.17.54.25.82l.5,1.63a50.79,50.79,0,0,1,1.69,13.55L447.1,393l-.36,3.41-.19,1.7c-.08.56-.2,1.12-.3,1.68l-.63,3.36a16,16,0,0,1-.4,1.66l-.44,1.65-.89,3.29c-.77,2.15-1.52,4.29-2.3,6.43l2-6.51.81-3.31.4-1.65a15.31,15.31,0,0,0,.36-1.66l.57-3.34c.09-.56.21-1.12.29-1.68l.16-1.69.33-3.37.07-3.39a52.34,52.34,0,0,0-1.53-13.43l-.46-1.63c-.08-.27-.14-.55-.23-.82l-.28-.79-.57-1.6c-.21-.53-.45-1-.67-1.56A27.52,27.52,0,0,0,439.47,363.82Z" style="fill:#fff"></path><path d="M442.31,364.59a19.46,19.46,0,0,1,2.6,2.29,28.27,28.27,0,0,1,2.24,2.65,29.79,29.79,0,0,1,3.47,6,34.6,34.6,0,0,1,2.76,13.58c0,1.16-.06,2.32-.11,3.48s-.2,2.31-.41,3.45l-.28,1.72-.37,1.7c-.21,1.14-.56,2.25-.86,3.37a68.41,68.41,0,0,1-5.27,12.8l1.4-3.16,1.29-3.21,1.16-3.25c.32-1.11.68-2.2,1-3.31l.42-1.67c.16-.55.28-1.12.39-1.68l.34-1.69.26-1.7c.21-1.13.26-2.28.39-3.41s.13-2.29.08-3.44a35,35,0,0,0-2.58-13.4,29.91,29.91,0,0,0-3.29-6A25.09,25.09,0,0,0,442.31,364.59Z" style="fill:#fff"></path><path d="M431.31,379.05a31.82,31.82,0,0,1,2,3h-.36c.34-.6.69-1.19,1.06-1.78.18-.29.37-.58.56-.86s.39-.57.61-.84c-.13.32-.28.63-.42.94s-.3.63-.46.93c-.31.61-.64,1.22-1,1.81l-.18.31-.18-.31A31.56,31.56,0,0,1,431.31,379.05Z" style="fill:#fff"></path><path d="M433,377.51a12.52,12.52,0,0,1,.15,4.62,13.12,13.12,0,0,1-.15-4.62Z" style="fill:#fff"></path><path d="M446.73,363.28a30.4,30.4,0,0,1,0,3.57l-.3-.2c.6-.32,1.22-.62,1.85-.91.31-.15.62-.29.94-.42l1-.38-.87.57-.89.53c-.6.34-1.2.67-1.81,1l-.33.16,0-.35A28.29,28.29,0,0,1,446.73,363.28Z" style="fill:#fff"></path><path d="M449,362.88a13,13,0,0,1-2.39,4,11.53,11.53,0,0,1,1-2.09A12.34,12.34,0,0,1,449,362.88Z" style="fill:#fff"></path><path d="M443,373.94a27.75,27.75,0,0,1,1.61,3.17l-.35,0c.4-.55.82-1.1,1.25-1.64.21-.26.43-.53.66-.79s.45-.52.7-.77c-.17.31-.35.6-.53.9s-.37.58-.56.87c-.38.57-.78,1.13-1.19,1.68l-.22.29-.14-.33A32.54,32.54,0,0,1,443,373.94Z" style="fill:#fff"></path><path d="M444.85,372.59a13.12,13.12,0,0,1-.39,4.61,13.12,13.12,0,0,1,.39-4.61Z" style="fill:#fff"></path><path d="M436.35,409.11a30.55,30.55,0,0,1,2,3H438q.51-.9,1.05-1.77c.19-.29.37-.58.57-.87s.39-.57.6-.84c-.12.32-.27.63-.41.95s-.3.62-.46.93c-.32.61-.65,1.21-1,1.81l-.18.31-.18-.31A30.56,30.56,0,0,1,436.35,409.11Z" style="fill:#fff"></path><path d="M438,407.57a13.07,13.07,0,0,1,.15,4.61,12.47,12.47,0,0,1-.15-4.61Z" style="fill:#fff"></path><path d="M420.69,368.53a29.77,29.77,0,0,1,1,3.42l-.34-.11c.49-.47,1-.94,1.52-1.39.26-.23.52-.45.79-.66s.54-.44.82-.64c-.21.28-.44.53-.67.79s-.47.51-.71.76q-.71.74-1.47,1.44l-.26.25-.08-.35A29.27,29.27,0,0,1,420.69,368.53Z" style="fill:#fff"></path><path d="M422.7,367.53a12.58,12.58,0,0,1-1.19,4.46,12.73,12.73,0,0,1,1.19-4.46Z" style="fill:#fff"></path><path d="M457.27,381.36a29.91,29.91,0,0,1-.37,3.54l-.28-.23c.64-.25,1.29-.48,1.94-.7.33-.1.66-.21,1-.3s.66-.19,1-.27c-.3.17-.62.32-.93.47s-.62.29-.94.42c-.63.27-1.27.53-1.91.77l-.34.12.06-.35A29.48,29.48,0,0,1,457.27,381.36Z" style="fill:#fff"></path><path d="M459.51,381.21a12.58,12.58,0,0,1-2.82,3.66,11.06,11.06,0,0,1,1.25-2A11.43,11.43,0,0,1,459.51,381.21Z" style="fill:#fff"></path><path d="M424.53,394.45a28.85,28.85,0,0,1,2,2.95h-.35c.32-.61.67-1.2,1-1.79.18-.29.36-.58.55-.87s.39-.57.6-.85c-.12.33-.27.64-.41,1s-.29.63-.44.94c-.31.61-.63,1.22-1,1.82l-.18.31-.18-.31A29.57,29.57,0,0,1,424.53,394.45Z" style="fill:#fff"></path><path d="M426.15,392.89a13.13,13.13,0,0,1,.21,4.62,13.13,13.13,0,0,1-.21-4.62Z" style="fill:#fff"></path><path d="M412.23,402.33a28.25,28.25,0,0,1,3,2l-.33.14c.08-.68.18-1.36.29-2,.06-.34.12-.68.19-1s.14-.67.24-1c0,.35,0,.69,0,1s0,.69-.07,1c-.06.69-.13,1.37-.22,2.05l0,.36-.28-.22A31.19,31.19,0,0,1,412.23,402.33Z" style="fill:#fff"></path><path d="M413.15,400.27a11.28,11.28,0,0,1,1.15,2,11.6,11.6,0,0,1,.77,2.19,11.28,11.28,0,0,1-1.15-2A11.6,11.6,0,0,1,413.15,400.27Z" style="fill:#fff"></path><path d="M409.18,371.07a29.65,29.65,0,0,1,3.28,1.4l-.3.19c-.05-.68-.08-1.37-.1-2.06,0-.34,0-.69,0-1s0-.69,0-1c.07.34.12.69.17,1s.1.68.13,1c.08.68.14,1.37.18,2.06l0,.36-.32-.16A31.73,31.73,0,0,1,409.18,371.07Z" style="fill:#fff"></path><path d="M409.7,368.88a12.08,12.08,0,0,1,1.51,1.77,11.34,11.34,0,0,1,1.16,2,11.43,11.43,0,0,1-1.51-1.76A11.07,11.07,0,0,1,409.7,368.88Z" style="fill:#fff"></path><path d="M451.16,393.66a29.6,29.6,0,0,1,1.68,3.14l-.36,0c.4-.57.8-1.12,1.22-1.67.21-.27.42-.54.64-.8s.45-.53.69-.79c-.16.31-.34.61-.51.91s-.36.59-.54.88c-.37.58-.76,1.15-1.16,1.71l-.21.29-.14-.32A30.51,30.51,0,0,1,451.16,393.66Z" style="fill:#fff"></path><path d="M452.94,392.28a12.48,12.48,0,0,1-.29,4.61,12,12,0,0,1-.06-2.32A11.23,11.23,0,0,1,452.94,392.28Z" style="fill:#fff"></path><polygon points="412.39 413.65 452.84 413.65 448.77 447.47 416.46 447.47 412.39 413.65" style="fill:#455a64"></polygon><polygon points="412.39 413.65 413.31 421.28 452.15 419.41 452.84 413.65 412.39 413.65" style="fill:#263238"></polygon><rect x="409.85" y="409.38" width="45.53" height="6.05" style="fill:#455a64"></rect></g><g id="freepik--Table--inject-265"><polygon points="44.45 447.47 95.84 447.23 147.23 447.14 250 446.97 352.77 447.14 404.16 447.23 455.55 447.47 404.16 447.72 352.77 447.8 250 447.97 147.23 447.8 95.84 447.71 44.45 447.47" style="fill:#263238"></polygon></g><g id="freepik--Character--inject-265"><path d="M207.73,115.46c-9.23-13.14-27.09-18.09-45.19-16.69s-40.22,7.51-45.54,35.47c-4.32,22.7.45,45.86-2.72,71.38s-40.74,84.3,4.09,120.15C158.63,358,249.83,343,259.24,287.14c7.46-44.25-42.91-91.65-46.64-109.93S217.85,129.87,207.73,115.46Z" style="fill:#263238"></path><path d="M212.69,141.48c-1.18,12.77-.8,25.86,3.3,38.51a36.32,36.32,0,0,0,4.48,9.07c1.85,2.82,3.83,5.49,5.8,8.16,4,5.29,8,10.54,11.68,15.94,7.42,10.76,13.63,22.21,17.49,34.4a96.94,96.94,0,0,1,4.06,37.83,82.68,82.68,0,0,0,1.69-19.24,90.45,90.45,0,0,0-2.91-19.27c-3.27-12.71-9.6-24.61-17.07-35.6-3.78-5.49-7.87-10.76-11.92-16S221.08,185,218.87,179.1a78.57,78.57,0,0,1-4.57-18.49A147.05,147.05,0,0,1,212.69,141.48Z" style="fill:#263238"></path><path d="M116,153.61c-1.21,13-1.9,26.08-3.81,38.93a150.07,150.07,0,0,1-4,19c-1.74,6.13-4.45,12.17-6.84,18.32s-4.63,12.39-6.48,18.75a107.14,107.14,0,0,0-3.66,19.52A66.84,66.84,0,0,0,92.69,288a48.52,48.52,0,0,0,9.38,17.73,51.13,51.13,0,0,1-7.53-18.07,65.47,65.47,0,0,1-.4-19.21c1.73-12.78,6-25.14,10.81-37.32,2.31-6.13,5-12.17,6.75-18.7a124.09,124.09,0,0,0,3.39-19.51A306.63,306.63,0,0,0,116,153.61Z" style="fill:#263238"></path><path d="M200.06,249.13c56.43,51.78,95,88.3,98.91,117,5.36,39.73-13.31,40.66-24.24,40.67-29.77,0-75-91.17-93.41-137.41C163.45,224.5,187.68,237.75,200.06,249.13Z" style="fill:#f7a9a0"></path><path d="M227.92,447.11l-9.79-84.94s22.88-19.09,10.89-49c-5.24-13.06-26.64-59.09-48.3-75.08-25.49-18.82-49.95-1.5-59.46,11.4C102.2,275.33,59,336.06,52.37,447.15Z" style="fill:#BA68C8"></path><path d="M71.61,446.52c.78.16,1.57.25,2.37.47-.23,0-.5.1-.73.16H68.81A5,5,0,0,1,66,442.68a3.8,3.8,0,0,0-1.85-3.15,4.25,4.25,0,0,0-2-.59c-.81-.16-1.57-.26-2.37-.46,1.56-.26,3.11-.9,5-.26a4.8,4.8,0,0,1,3.12,4.42,3.8,3.8,0,0,0,1.71,3.24A4,4,0,0,0,71.61,446.52Z" style="fill:#BA68C8"></path><path d="M79.67,386.69c.78.16,1.59.24,2.37.47-1.55.26-3.13.92-5,.2a4.89,4.89,0,0,1-3-4.51,3.82,3.82,0,0,0-1.83-3.15,4,4,0,0,0-2-.59c-.78-.16-1.57-.26-2.37-.46,1.59-.26,3.11-.88,5-.26A4.77,4.77,0,0,1,76,382.81a3.77,3.77,0,0,0,1.73,3.24A3.91,3.91,0,0,0,79.67,386.69Z" style="fill:#BA68C8"></path><path d="M104.14,277.69a4,4,0,0,0-1.67-.55l.63-1a5.21,5.21,0,0,1,1.64.27,4.8,4.8,0,0,1,3.12,4.42,3.72,3.72,0,0,0,1.73,3.24,3.89,3.89,0,0,0,2,.66c.8.14,1.6.25,2.39.45-1.57.28-3.16.92-5,.18a4.84,4.84,0,0,1-3-4.49A3.73,3.73,0,0,0,104.14,277.69Z" style="fill:#BA68C8"></path><path d="M112.82,422.66c.67-.44,1.31-.94,2-1.35-.92,1.29-1.59,2.84-3.36,3.72a4.78,4.78,0,0,1-5.32-.92,3.75,3.75,0,0,0-3.52-1.05,3.51,3.51,0,0,0-1.85.95c-.68.44-1.29.94-2,1.34.9-1.3,1.59-2.87,3.42-3.7a4.89,4.89,0,0,1,5.26,1.11,3.75,3.75,0,0,0,3.52.93A4,4,0,0,0,112.82,422.66Z" style="fill:#BA68C8"></path><path d="M117.83,338.66c.66-.44,1.28-.94,2-1.34-1,1.3-1.59,2.83-3.36,3.72a4.8,4.8,0,0,1-5.35-.93,3.76,3.76,0,0,0-3.5-1.06,3.88,3.88,0,0,0-1.86,1c-.67.44-1.31.95-2,1.35.93-1.29,1.59-2.88,3.42-3.68a4.89,4.89,0,0,1,5.29,1.08,3.73,3.73,0,0,0,3.52.93A4.06,4.06,0,0,0,117.83,338.66Z" style="fill:#BA68C8"></path><path d="M135.14,372.4c.26,1.57.88,3.12.26,5A4.79,4.79,0,0,1,131,380.5a3.88,3.88,0,0,0-3.24,1.75,3.84,3.84,0,0,0-.62,2c-.18.78-.27,1.57-.47,2.37-.28-1.57-.92-3.15-.18-5a4.84,4.84,0,0,1,4.49-3,3.72,3.72,0,0,0,3.13-1.83,4.26,4.26,0,0,0,.61-2C134.82,374,134.92,373.18,135.14,372.4Z" style="fill:#BA68C8"></path><path d="M152,293.81c.24,1.59.88,3.14.24,5a4.8,4.8,0,0,1-4.41,3.11,3.82,3.82,0,0,0-3.23,1.71,3.74,3.74,0,0,0-.65,2c-.16.81-.24,1.59-.46,2.4-.26-1.55-.92-3.18-.2-5a4.86,4.86,0,0,1,4.5-3,3.71,3.71,0,0,0,3.16-1.85,4,4,0,0,0,.56-2C151.68,295.4,151.76,294.62,152,293.81Z" style="fill:#BA68C8"></path><path d="M154.8,251.51c.78.14,1.59.24,2.39.46-1.59.27-3.17.91-5,.19a4.89,4.89,0,0,1-3-4.51,3.7,3.7,0,0,0-1.83-3.13,4,4,0,0,0-2-.61c-.8-.14-1.61-.24-2.39-.44,1.59-.28,3.11-.9,5-.28a4.85,4.85,0,0,1,3.12,4.44,3.78,3.78,0,0,0,1.73,3.24A4.11,4.11,0,0,0,154.8,251.51Z" style="fill:#BA68C8"></path><path d="M166.2,444.31c.15.92.44,1.83.51,2.81h-1c0-.14,0-.28,0-.44C165.9,445.9,166,445.12,166.2,444.31Z" style="fill:#BA68C8"></path><path d="M161.11,345.62c-.8-.16-1.57-.26-2.37-.46,1.57-.26,3.12-.91,5-.26a4.79,4.79,0,0,1,3.11,4.4,3.84,3.84,0,0,0,1.71,3.26,4.19,4.19,0,0,0,2,.64c.79.14,1.57.24,2.37.46-1.56.26-3.15.91-5,.18a4.86,4.86,0,0,1-2.94-4.5,3.81,3.81,0,0,0-1.85-3.14A4,4,0,0,0,161.11,345.62Z" style="fill:#BA68C8"></path><path d="M174.22,408.45c.68-.47,1.31-.95,2-1.37-.92,1.33-1.57,2.85-3.36,3.74a4.78,4.78,0,0,1-5.3-.93,3.92,3.92,0,0,0-5.39-.12c-.69.47-1.29,1-2,1.37.92-1.31,1.59-2.89,3.42-3.68a4.81,4.81,0,0,1,5.26,1.09,3.78,3.78,0,0,0,3.52.92A4.08,4.08,0,0,0,174.22,408.45Z" style="fill:#BA68C8"></path><path d="M192.9,281.73c-.26-1.55-.93-3.16-.18-5a4.83,4.83,0,0,1,4.5-2.95,3.71,3.71,0,0,0,3.14-1.83,4.21,4.21,0,0,0,.58-2c.16-.79.24-1.59.46-2.4.26,1.61.91,3.14.26,5a4.78,4.78,0,0,1-4.42,3.12,3.78,3.78,0,0,0-3.24,1.73,3.87,3.87,0,0,0-.64,2C193.2,280.14,193.12,280.94,192.9,281.73Z" style="fill:#BA68C8"></path><path d="M201.54,321.19a4.78,4.78,0,0,1-5.33-.92,3.75,3.75,0,0,0-3.51-1.07,3.87,3.87,0,0,0-1.85.95c-.67.46-1.29.94-2,1.37.92-1.31,1.58-2.9,3.41-3.68a4.8,4.8,0,0,1,5.27,1.08,3.79,3.79,0,0,0,3.54.93,4,4,0,0,0,1.83-1c.66-.46,1.31-.94,2-1.37C204,318.78,203.33,320.31,201.54,321.19Z" style="fill:#BA68C8"></path><path d="M201.92,382.25a4,4,0,0,0-.64,2c-.14.78-.24,1.57-.46,2.37-.26-1.57-.91-3.15-.18-5a4.88,4.88,0,0,1,4.5-3,3.76,3.76,0,0,0,3.14-1.83,4.15,4.15,0,0,0,.6-2c.14-.78.24-1.59.44-2.37.26,1.57.91,3.12.26,5a4.75,4.75,0,0,1-4.4,3.09A3.9,3.9,0,0,0,201.92,382.25Z" style="fill:#BA68C8"></path><path d="M213.32,434.76a22.23,22.23,0,0,1,2.38.47c-1.55.26-3.14.9-5,.18a4.87,4.87,0,0,1-3-4.51,3.82,3.82,0,0,0-1.83-3.15,4,4,0,0,0-2.05-.57c-.78-.18-1.56-.26-2.35-.46,1.57-.26,3.1-.92,5-.26a4.72,4.72,0,0,1,3.11,4.4,3.79,3.79,0,0,0,1.73,3.24A4,4,0,0,0,213.32,434.76Z" style="fill:#BA68C8"></path><path d="M228.6,347.77q-.32.71-.66,1.38l-.38-.25a4,4,0,0,0-2-.59c-.79-.18-1.59-.24-2.38-.46,1.59-.26,3.12-.9,5-.26A3.38,3.38,0,0,1,228.6,347.77Z" style="fill:#BA68C8"></path><path d="M135.14,372.4c-.22.78-.32,1.59-.46,2.37a4.26,4.26,0,0,1-.61,2,3.72,3.72,0,0,1-3.13,1.83,4.84,4.84,0,0,0-4.49,3c-.74,1.87-.1,3.45.18,5,.2-.8.29-1.59.47-2.37a3.84,3.84,0,0,1,.62-2A3.88,3.88,0,0,1,131,380.5a4.79,4.79,0,0,0,4.44-3.09C136,375.52,135.4,374,135.14,372.4ZM151,294.63c-.23.81-.31,1.59-.49,2.39a4,4,0,0,1-.56,2,3.71,3.71,0,0,1-3.16,1.85,4.86,4.86,0,0,0-4.5,3c-.72,1.85-.06,3.48.2,5,.22-.81.3-1.59.46-2.4a3.74,3.74,0,0,1,.65-2,3.82,3.82,0,0,1,3.23-1.71,4.8,4.8,0,0,0,4.41-3.11C151.9,297.77,151.26,296.22,151,294.63Zm50.38-27.14c-.22.81-.3,1.61-.46,2.4a4.21,4.21,0,0,1-.58,2,3.71,3.71,0,0,1-3.14,1.83,4.83,4.83,0,0,0-4.5,2.95c-.75,1.87-.08,3.48.18,5,.22-.79.3-1.59.46-2.39a3.87,3.87,0,0,1,.64-2,3.78,3.78,0,0,1,3.24-1.73,4.78,4.78,0,0,0,4.42-3.12C202.31,270.63,201.66,269.1,201.4,267.49ZM166.2,444.31c-.2.81-.3,1.59-.44,2.37,0,.16,0,.3,0,.44h1C166.64,446.14,166.35,445.23,166.2,444.31Zm43.12-71.91c-.2.78-.3,1.59-.44,2.37a4.15,4.15,0,0,1-.6,2,3.76,3.76,0,0,1-3.14,1.83,4.88,4.88,0,0,0-4.5,3c-.73,1.87-.08,3.45.18,5,.22-.8.32-1.59.46-2.37a4,4,0,0,1,.64-2,3.9,3.9,0,0,1,3.26-1.75,4.75,4.75,0,0,0,4.4-3.09C210.23,375.52,209.58,374,209.32,372.4Zm-35.1,36.05a4.08,4.08,0,0,1-1.85,1,3.78,3.78,0,0,1-3.52-.92,4.81,4.81,0,0,0-5.26-1.09c-1.83.79-2.5,2.37-3.42,3.68.72-.42,1.32-.9,2-1.37a3.92,3.92,0,0,1,5.39.12,4.78,4.78,0,0,0,5.3.93c1.79-.89,2.44-2.41,3.36-3.74C175.53,407.5,174.9,408,174.22,408.45Zm-56.39-69.79a4.06,4.06,0,0,1-1.85,1,3.73,3.73,0,0,1-3.52-.93,4.89,4.89,0,0,0-5.29-1.08c-1.83.8-2.49,2.39-3.42,3.68.71-.4,1.35-.91,2-1.35a3.88,3.88,0,0,1,1.86-1,3.76,3.76,0,0,1,3.5,1.06,4.8,4.8,0,0,0,5.35.93c1.77-.89,2.41-2.42,3.36-3.72C119.11,337.72,118.49,338.22,117.83,338.66Zm-5,84a4,4,0,0,1-1.85,1,3.75,3.75,0,0,1-3.52-.93,4.89,4.89,0,0,0-5.26-1.11c-1.83.83-2.52,2.4-3.42,3.7.72-.4,1.33-.9,2-1.34a3.51,3.51,0,0,1,1.85-.95,3.75,3.75,0,0,1,3.52,1.05,4.78,4.78,0,0,0,5.32.92c1.77-.88,2.44-2.43,3.36-3.72C114.13,421.72,113.49,422.22,112.82,422.66Zm90.07-103.84a4,4,0,0,1-1.83,1,3.79,3.79,0,0,1-3.54-.93,4.8,4.8,0,0,0-5.27-1.08c-1.83.78-2.49,2.37-3.41,3.68.72-.43,1.34-.91,2-1.37a3.87,3.87,0,0,1,1.85-.95,3.75,3.75,0,0,1,3.51,1.07,4.78,4.78,0,0,0,5.33.92c1.79-.88,2.43-2.41,3.38-3.74C204.2,317.88,203.55,318.36,202.89,318.82ZM79.67,386.69a3.91,3.91,0,0,1-2-.64A3.77,3.77,0,0,1,76,382.81a4.77,4.77,0,0,0-3.12-4.42c-1.89-.62-3.41,0-5,.26.8.2,1.59.3,2.37.46a4,4,0,0,1,2,.59,3.82,3.82,0,0,1,1.83,3.15,4.89,4.89,0,0,0,3,4.51c1.87.72,3.45.06,5-.2C81.26,386.93,80.45,386.85,79.67,386.69Zm31.89-102a3.89,3.89,0,0,1-2-.66,3.72,3.72,0,0,1-1.73-3.24,4.8,4.8,0,0,0-3.12-4.42,5.21,5.21,0,0,0-1.64-.27l-.63,1a4,4,0,0,1,1.67.55,3.73,3.73,0,0,1,1.83,3.15,4.84,4.84,0,0,0,3,4.49c1.85.74,3.44.1,5-.18C113.16,285,112.36,284.84,111.56,284.7Zm116.6,62.89c-1.89-.64-3.42,0-5,.26.79.22,1.59.28,2.38.46a4,4,0,0,1,2,.59l.38.25q.34-.67.66-1.38A3.38,3.38,0,0,0,228.16,347.59Zm-14.84,87.17a4,4,0,0,1-2-.66,3.79,3.79,0,0,1-1.73-3.24,4.72,4.72,0,0,0-3.11-4.4c-1.89-.66-3.42,0-5,.26.79.2,1.57.28,2.35.46a4,4,0,0,1,2.05.57,3.82,3.82,0,0,1,1.83,3.15,4.87,4.87,0,0,0,3,4.51c1.87.72,3.46.08,5-.18A22.23,22.23,0,0,0,213.32,434.76ZM71.61,446.52a4,4,0,0,1-2-.64,3.8,3.8,0,0,1-1.71-3.24,4.8,4.8,0,0,0-3.12-4.42c-1.89-.64-3.44,0-5,.26.8.2,1.56.3,2.37.46a4.25,4.25,0,0,1,2,.59A3.8,3.8,0,0,1,66,442.68a5,5,0,0,0,2.79,4.47h4.44c.23-.06.5-.12.73-.16C73.18,446.77,72.39,446.68,71.61,446.52Zm99-93.32a4.19,4.19,0,0,1-2-.64,3.84,3.84,0,0,1-1.71-3.26,4.79,4.79,0,0,0-3.11-4.4c-1.89-.65-3.44,0-5,.26.8.2,1.57.3,2.37.46a4,4,0,0,1,2,.58,3.81,3.81,0,0,1,1.85,3.14,4.86,4.86,0,0,0,2.94,4.5c1.87.73,3.46.08,5-.18C172.15,353.44,171.37,353.34,170.58,353.2ZM153.82,253a4.11,4.11,0,0,1-2-.64,3.78,3.78,0,0,1-1.73-3.24,4.85,4.85,0,0,0-3.12-4.44c-1.89-.62-3.41,0-5,.28.78.2,1.59.3,2.39.44a4,4,0,0,1,2,.61,3.7,3.7,0,0,1,1.83,3.13,4.89,4.89,0,0,0,3,4.51c1.85.72,3.43.08,5-.19C155.41,253.23,154.6,253.13,153.82,253Z" style="fill:#fff"></path><path d="M163.24,353.42a177.05,177.05,0,0,1,25.89,2.94c4.23.87,8.4,1.92,12.57,3.06,2.07.58,4.16,1.08,6.25,1.57a27.93,27.93,0,0,0,6.68.91.16.16,0,0,1,0,.31,46.81,46.81,0,0,1-6.38.2,45.39,45.39,0,0,1-6.13-.84c-4.3-.83-8.56-1.87-12.86-2.75-8.66-1.77-17.32-3.54-26.1-4.68C162.77,354.08,162.83,353.4,163.24,353.42Z" style="fill:#263238"></path><path d="M142.25,362.15a187.22,187.22,0,0,1,21.4-2.1c3.59-.14,7.15-.07,10.74.1,1.71.08,3.42.19,5.13.32,1.88.15,3.74.55,5.62.66.2,0,.22.32,0,.31-1.77-.05-3.57.18-5.34.23l-5.36.12c-3.58.09-7.15.22-10.73.28-7.16.12-14.29.3-21.45.66C141.88,362.75,141.89,362.2,142.25,362.15Z" style="fill:#263238"></path><path d="M145.23,234.3c.2,3.58,14.27,27.52,30.37,26.89,11.32-.45,8.23-23.33,8.23-23.33l12.48-29.8-34.62-31.69S145.17,232.78,145.23,234.3Z" style="fill:#f7a9a0"></path><path d="M155.91,196.19a61.73,61.73,0,0,0,28.61,40l11.8-28.13L161.7,176.38S159.08,185.33,155.91,196.19Z" style="fill:#263238"></path><path d="M145.23,234.3s11.6,27.76,49,65c0,0-3.6-46.86-10.11-57.41Z" style="fill:#f7a9a0"></path><path d="M237.27,152.18c13.74,51.11-15.37,65.1-26.42,68-10,2.68-44.5,10.51-63.47-38.9s.5-71.95,23.11-79.28S223.52,101.07,237.27,152.18Z" style="fill:#f7a9a0"></path><path d="M229.14,143.17a34.42,34.42,0,0,1-3.67-.19c-1.41-.09-2.54,0-3.71-.9a1.88,1.88,0,0,1-.36-2.28c.95-1.52,2.7-1.84,4.4-1.81a6.94,6.94,0,0,1,4.66,1.73A2,2,0,0,1,229.14,143.17Z" style="fill:#263238"></path><path d="M196.86,155a34.67,34.67,0,0,0,3.43-1.32c1.31-.51,2.41-.79,3.25-2a1.89,1.89,0,0,0-.37-2.28c-1.37-1.15-3.14-.92-4.74-.36a6.94,6.94,0,0,0-3.9,3.09A2,2,0,0,0,196.86,155Z" style="fill:#263238"></path><path d="M208.59,191.8c.94.76,1.92,1.84,3.24,1.82a9.62,9.62,0,0,0,3.79-1.27c.11-.06.24.05.17.16a4.87,4.87,0,0,1-4.39,2.4c-1.66-.13-2.6-1.46-3.14-2.91C208.18,191.79,208.45,191.69,208.59,191.8Z" style="fill:#263238"></path><path d="M221.56,176.57s1.57,5.22,2,7.74c0,.24-.56.44-1.4.63,0,0-.06,0-.1,0a12.15,12.15,0,0,1-12.35-2.67c-.21-.22.07-.53.32-.41,3.71,1.93,7.48,2,11.44,1.45.07-.73-3-8.87-2.58-9,1.36-.33,4.22.19,5.93.41-2.95-11-7.63-21.4-10.4-32.38a.35.35,0,0,1,.63-.27c5.69,10.58,9.36,23.14,12.69,34.41C228.13,177.93,222.64,176.84,221.56,176.57Z" style="fill:#263238"></path><path d="M205,163.29c0-.13-.24.22-.2.36.83,3.47,1.19,7.59-1.73,9.4-.09,0,0,.22.07.18C206.92,171.9,206.38,166.44,205,163.29Z" style="fill:#263238"></path><path d="M197.8,163.2a9.93,9.93,0,0,0,.43,2,5.33,5.33,0,0,1-.55,1.48,2.74,2.74,0,0,1-2.47,1.57c-2.16-.07-3.25-2.22-3.56-4.38,0-.16.06-.26.16-.17,1,1.06,2.11,2.13,3.34,1.83,1.07-.24,1.77-1.48,2.57-2.24,0,0,0,0,.07,0Z" style="fill:#263238"></path><path d="M205.92,167.06a5.39,5.39,0,0,1-.66,2.8,3.89,3.89,0,0,1-2.57,1.8,3.5,3.5,0,0,1-3-.9,6.36,6.36,0,0,1-1.53-2.4,12.27,12.27,0,0,1-.43-1.66,7.69,7.69,0,0,1,.1-3.54,10.85,10.85,0,0,0,.62,2.51,14.13,14.13,0,0,0,.93,2.13c.76,1.4,1.87,2.47,3,2.16s2-1.4,2.19-3a25.62,25.62,0,0,0,0-5A11.12,11.12,0,0,1,205.92,167.06Z" style="fill:#263238"></path><path d="M224.52,158.92c0-.14.31.11.34.25.66,3.5,2,7.41,5.42,7.86.11,0,.14.19,0,.2C226.33,167.55,224.59,162.35,224.52,158.92Z" style="fill:#263238"></path><path d="M231.09,155.88a10.1,10.1,0,0,1,.41,2,5.18,5.18,0,0,0,1.11,1.13,2.74,2.74,0,0,0,2.9.42c1.94-.95,2.05-3.36,1.44-5.46,0-.15-.16-.21-.21-.09-.46,1.38-1.05,2.82-2.3,3-1.07.21-2.21-.63-3.26-1,0,0,0,0-.06,0Z" style="fill:#263238"></path><path d="M225.26,162.72A5.37,5.37,0,0,0,227,165a3.92,3.92,0,0,0,3.08.59,3.57,3.57,0,0,0,2.4-2.07,6.25,6.25,0,0,0,.41-2.82,13.24,13.24,0,0,0-.28-1.69,7.73,7.73,0,0,0-1.55-3.19,11.45,11.45,0,0,1,.47,2.54,16.52,16.52,0,0,1,0,2.33c-.13,1.59-.7,3-1.89,3.22s-2.39-.46-3.23-1.83a25.63,25.63,0,0,1-2-4.52A11.25,11.25,0,0,0,225.26,162.72Z" style="fill:#263238"></path><path d="M153.2,188.94c10-8,7.61-19.9,7.61-19.9a56.32,56.32,0,0,0,18-23.33c-.09,1.13-.72,9.29-1.17,13.44,30.84-13.84,34.86-40.93,34.86-40.93,13,7.9,16.71,14.07,19,17,0,0-4.56-19.84-18-30.62-16.4-13.2-59.57-7.39-73.94,18.48C124.15,151,153.2,188.94,153.2,188.94Z" style="fill:#263238"></path><path d="M200.87,147.87A61.66,61.66,0,0,1,185.77,158s-.07,0,0-.07a52,52,0,0,0,20.24-20,49.38,49.38,0,0,0,4.62-11.41c1.1-4.17,2-9,1.31-13.33a.26.26,0,0,1,.51-.08c.7,4.55,1.31,8.74.51,13.33a36.31,36.31,0,0,1-4.58,12.41,42.27,42.27,0,0,1-7.48,9.12" style="fill:#263238"></path><path d="M156.18,179.44s-14.28-14.24-21-8.88,6.09,27.42,15.35,29.11,11-6.83,11-6.83Z" style="fill:#f7a9a0"></path><path d="M139,176.79a.12.12,0,0,0,0,.24c6.53,1.39,10.73,6.45,14,11.89-2.21-1.92-4.9-2.72-7.53,0-.14.14.06.36.22.29,2.4-1,4.28-.86,6.31.83a26,26,0,0,1,3.72,4.32c.39.49,1.32,0,1-.56l-.08-.13C155.47,185.87,147.51,176.1,139,176.79Z" style="fill:#263238"></path><path d="M261.29,400.07C248,386.85,260,352.86,276.08,296.45c2.82-9.9,74.17-25.78,74.13-14.78-.06,13.87-19.43,76.64-27.7,91.48C306.19,402.4,276.84,415.5,261.29,400.07Z" style="fill:#f7a9a0"></path><path d="M341.27,319c7.12-17.7,15.57-43.22,12.45-51.36-3.27-8.55-16-38.14-21.16-44.07s-27.66-33.32-34.69-33.28c-5.63,0-7,14,3.65,27.17,9.34,11.57,13,19.48,15.62,22.93s4.58,19.71-.6,23.42c-3.05,2.18-13.66.73-17.63-4.76s.77-16.86-2.48-25.37-14.41-14.08-16.7-11.52.49,6,.34,19c-.09,8.41-8.61,23.84-6.82,39.42.89,7.83-.44,26.53-.44,26.53Z" style="fill:#f7a9a0"></path><path d="M289.39,218.45l39.81,53.24,22.19-10L309.55,293l15.87-18.47-39.81-53.26c-11.11,7.08-25.21,6.65-37.16-7.1-12.7-14.62-18.89-34.56-18.89-34.56l36-26.89s17.38,11.58,27.8,27.9C303.21,196.07,299.5,209.81,289.39,218.45Z" style="fill:#ebebeb;opacity:0.5"></path><path d="M284.5,215.58c-9.57,7.15-22.07,7.3-33-4.79-2.77-3.07-8.18-11.94-11.67-19.73h53.37C296.1,201.22,292,209.94,284.5,215.58Z" style="fill:#BA68C8"></path><path d="M234.89,175.61l4-3s8.59,27.15,18.74,36.6,16.62,8.56,16.62,8.56-10.16,4.1-21.47-8.13C240.78,196.75,234.89,175.61,234.89,175.61Z" style="fill:#fff;opacity:0.5"></path><path d="M293.3,225.91c-1.65-1.51-3.38-3.26-4-5.48a5,5,0,0,1,0-2.89,4.89,4.89,0,0,1,.74-1.39c.29-.38.77-1,1.27-1,.15,0,.07-.24-.05-.16a8.41,8.41,0,0,1-.87.37,4,4,0,0,0-1.65,1.65,5,5,0,0,0-.49,3.33c.48,2.7,2.56,4.52,4.87,5.74C293.29,226.12,293.37,226,293.3,225.91Z" style="fill:#263238"></path><path d="M352.22,262.06c-.52-11.16-3.9-27.95-14.21-40.59-7-8.53-46.25-11.18-48.71-4.79s2.76,9.41,11.06,12.94c3,1.28,21.07,4.48,21.82,9.08,1.08,6.62,1,18.44,1,18.44l21.9-1.91Z" style="fill:#f7a9a0"></path><path d="M291.37,214.82c7.4-4.11,17.66-2.68,27.48-.58.15,0,.11.28,0,.24-2.51-.53-19.6-2.06-27.4.49C291.32,215,291.3,214.86,291.37,214.82Z" style="fill:#263238"></path><path d="M352.82,259.49a65.81,65.81,0,0,0-14.81-38c-7-8.53-42.23-3.32-44.7,3.07s4.81,11.17,14.8,13c3.23.61,15.9-.57,16.65,4,1.08,6.61,2.54,16.08,2.54,16.08l19.18.81Z" style="fill:#f7a9a0"></path><path d="M327.18,254.66c-.09-1.77-.12-2.39-.25-4.16s-.28-3.52-.54-5.27a13.44,13.44,0,0,0-1.09-4.48,6.82,6.82,0,0,0-3.27-2.84c-3-1.39-6.7-1-10-1-3.63,0-10.77-.71-14.85-3.66a9.86,9.86,0,0,1-2.9-2.89,6.35,6.35,0,0,1-1.12-2.82c-.05-4.28,4.4-6.58,8.29-7.78,7.24-2.25,15.28-2.29,22.78-1.8,1.84.12,3.68.28,5.52.45a14.89,14.89,0,0,1,6.13,1.51c3,1.71,6.23,7.61,7.23,9.42.08.14.27,0,.2-.14-1.19-2.22-3.64-8.62-8.65-11.16-1.83-.94-4-1-6.05-1.2s-4.25-.42-6.37-.54a80.71,80.71,0,0,0-12.44.17c-3.9.4-8.18,1-11.71,2.83-3.06,1.57-5.58,4.86-5.51,8.39.06,3,2.6,5.14,3.81,6a16.29,16.29,0,0,0,3.86,2.17,69.8,69.8,0,0,0,9.75,2.34c3.25.47,6.65,0,9.84.79a5.86,5.86,0,0,1,3.79,2.51,15.48,15.48,0,0,1,1.41,4.38,47.89,47.89,0,0,1,1.58,8.65C326.72,255.35,327.22,255.4,327.18,254.66Z" style="fill:#263238"></path><path d="M354.07,273.56c.32-5,5.71-19.43,5.43-26.12s-4.66-31.8-11.69-34.85c-8.82-3.83-8.75,16.08-7.93,24.72S334,256,334,256l16.3,1.58Z" style="fill:#f7a9a0"></path><path d="M339.68,223.63c.42,2.84.55,5.78.7,8.64a58,58,0,0,1,.21,8.23,24.81,24.81,0,0,1-2.3,7.76c-.55,1.22-1.18,2.39-1.83,3.55s-1.56,2.48-2.26,3.76c-.07.14-.29,0-.22-.1a62.88,62.88,0,0,0,3-7.4,34,34,0,0,0,1.84-8c.55-5.46-.07-11,.43-16.42C339.32,223.4,339.65,223.43,339.68,223.63Z" style="fill:#263238"></path><path d="M332.86,257.7a19.44,19.44,0,0,1-3.88,5.61,43.35,43.35,0,0,1-5.11,4.56,50.32,50.32,0,0,1-5.74,3.78,54.39,54.39,0,0,1-6.21,2.9q-3.1,1.27-6,2.8a43.75,43.75,0,0,0-5.57,3.55,51,51,0,0,0-9.36,9.54,36.88,36.88,0,0,1,8.41-10.71,42.61,42.61,0,0,1,11.79-7l3.1-1.33c1-.44,2-.91,3-1.44a64.68,64.68,0,0,0,5.71-3.41,57.59,57.59,0,0,0,5.35-4A24.91,24.91,0,0,0,332.86,257.7Z" style="fill:#263238"></path><path d="M257.57,362.54c.51-4.78,1.32-9.52,2.25-14.23s2.06-9.38,3.28-14,2.65-9.24,4.24-13.78a123.67,123.67,0,0,1,5.47-13.34l-4,13.81c-1.27,4.61-2.58,9.2-3.79,13.83C262.53,344,260.18,353.29,257.57,362.54Z" style="fill:#263238"></path><path d="M114.22,258.63c-39.67,59.56-78.6,175.44-62.91,194.53C68.8,474.43,124,391,122.9,387c-.79-3.06,10.44-68.21,15.09-118.89C141.85,226,124,243.9,114.22,258.63Z" style="fill:#f7a9a0"></path><path d="M305.58,447.18H251.17c-2.58,0,0-89.55,0-98.71s19.41-38.43,19.41-43.62,0-51.37,0-51.37h15.57s0,46.18,0,51.36,19.44,34.47,19.44,43.6S308.15,447.18,305.58,447.18Z" style="fill:#455a64"></path><rect x="250.01" y="387.9" width="56.68" height="41.08" style="fill:#dbdbdb"></rect><path d="M286.1,304.87c0,1,.75,3,2,5.55-1,3.41-3.61,12.13-9.46,12.58-5.58.43-10.33-12-10.33-12v0c1.37-2.84,2.25-5.05,2.26-6.14,0-5.17,0-51.35,0-51.35l15.55,0S286.08,299.68,286.1,304.87Z" style="fill:#ebebeb"></path><path d="M280.78,315.83a2.53,2.53,0,1,1-3.25-1.49A2.54,2.54,0,0,1,280.78,315.83Z" style="fill:#455a64"></path><rect x="270.92" y="238.96" width="15.15" height="7.95" style="fill:#BA68C8"></rect><rect x="270.92" y="238.96" width="15.15" height="7.95" style="opacity:0.2"></rect><rect x="273.3" y="246.89" width="10.37" height="6.26" style="fill:#BA68C8"></rect><rect x="273.3" y="246.89" width="10.37" height="6.26" style="opacity:0.2"></rect><polygon points="283.67 248.29 273.3 249.19 273.3 246.9 283.67 246.89 283.67 248.29" style="opacity:0.2"></polygon><rect x="269.28" y="247.99" width="18.16" height="6.38" style="fill:#37474f"></rect><path d="M54.15,455.86c15.1,12.71,45.65,7.75,123.75,2.47,10.8-.73,26.16-78.38,14.58-78.2-14.58.24-71.14,4.32-75.24,5.14C82.68,392.18,43.9,447.24,54.15,455.86Z" style="fill:#f7a9a0"></path><path d="M79.12,408.29c4.87-6,21.1-25,50.38-24.38.2,0,.29.31.09.33-26.59,2.88-45.08,18.93-50.25,24.28C79.2,408.66,79,408.44,79.12,408.29Z" style="fill:#263238"></path><path d="M163.08,383.36s28-10.77,46.61-17c10.39-3.46,28.72-7.81,37.49-6.89,13.12,1.37,67.05,15.42,63.78,28.5-3,11.83-47.69-6.09-47.69-6.09s46.78,14.11,40.58,27.74-54-13.32-54-13.32S297.62,411.91,289,425c-6.52,9.88-51.19-12.1-51.19-12.1s40.93,13.67,34.67,24.11c-6.92,11.53-49.46-6.17-49.46-6.17-20.4,23.92-42.47,31.26-56.65,27.24C163.08,457.13,163.08,383.36,163.08,383.36Z" style="fill:#f7a9a0"></path><path d="M249.6,376.74c35.29,7.78,50.09,22.34,49.62,22-11.18-7.26-30.41-14.52-35.81-16.47s-8.5-3.42-13.89-5.36C249.38,376.9,249.47,376.72,249.6,376.74Z" style="fill:#263238"></path><path d="M239.8,395.3c17,2.6,35.07,11,40.85,14.88.47.32.22.43-.31.23-6.8-2.67-33.7-12.62-40.6-15C239.63,395.43,239.69,395.28,239.8,395.3Z" style="fill:#263238"></path><path d="M230.28,410.72c15,3.46,21.32,6.51,31.27,12.45.48.29.1.46-.43.24-10.32-4.33-18.38-7.8-30.94-12.31C230,411,230.05,410.67,230.28,410.72Z" style="fill:#263238"></path><path d="M227.59,361.62a118.71,118.71,0,0,1,12.16-2.38c1-.13,2.06-.25,3.09-.35.53,0,1-.1,1.57-.12s1.08,0,1.61,0c2.1.13,4.15.43,6.2.74a196.49,196.49,0,0,1,24.19,5.53,124.32,124.32,0,0,1,23.14,9.07,47.17,47.17,0,0,1,5.32,3.31,21.75,21.75,0,0,1,4.61,4.33,9.94,9.94,0,0,1,1.53,2.83,6.33,6.33,0,0,1,.23,3.2,4.24,4.24,0,0,1-1.66,2.69,6,6,0,0,1-2.89,1.1,5.91,5.91,0,0,0,2.71-1.33,3.85,3.85,0,0,0,1.33-2.54,7,7,0,0,0-2-5.35,21.38,21.38,0,0,0-4.59-3.86,49.16,49.16,0,0,0-5.3-3,109.92,109.92,0,0,0-11.3-4.73q-5.77-2.09-11.69-3.8c-3.93-1.18-7.89-2.24-11.88-3.23s-8-1.89-12-2.69c-2-.38-4-.73-6-1-.5-.06-1-.1-1.48-.11s-1,0-1.51,0c-1,.05-2,.11-3.07.18C235.75,360.48,231.67,361,227.59,361.62Z" style="fill:#263238"></path></g></svg>
