<?xml version="1.0" encoding="UTF-8"?>
<svg width="13px" height="18px" viewBox="0 0 13 18" version="1.1" xmlns="http://www.w3.org/2000/svg" xmlns:xlink="http://www.w3.org/1999/xlink">
    <!-- Generator: sketchtool 64 (101010) - https://sketch.com -->
    <title>14A6B40C-CC78-4D3A-A0CC-213E17136C4B</title>
    <desc>Created with sketchtool.</desc>
    <g id="Page-1" stroke="none" stroke-width="1" fill="none" fill-rule="evenodd">
        <g id="Desktop---ProgBr---Sales-Page---v5.0---1440px" transform="translate(-165.000000, -509.000000)" fill="#FFFFFF">
            <g id="Header" transform="translate(0.000000, -1.000000)">
                <g id="Hero">
                    <g id="2.-UI-Elements/1.-Buttons/1.-Large/Simple/Basic" transform="translate(140.000000, 487.000000)">
                        <g id="Icon" transform="translate(20.000000, 21.000000)">
                            <path d="M17,2 C16.7862982,2 16.5782132,2.06843804 16.40625,2.1953125 C16.3970115,2.20231493 16.3878954,2.20947748 16.378906,2.2167969 L5.460938,10.15625 C5.46028757,10.1569019 5.45963623,10.1575529 5.458984,10.158203 L5.443359,10.169922 C5.16647958,10.3554432 5.00022507,10.6667129 5,11 C5.00022361,11.3357839 5.16895696,11.6490407 5.449219,11.833984 L16.40625,19.804688 C16.5782132,19.9315623 16.7862983,20 17,20 C17.5522847,20 18,19.5522847 18,19 C18,18.998698 18,18.997396 18,18.996094 L18,11 L18,3.0039062 C18,3.00260413 18,3.00130207 18,3 C18,2.44771525 17.5522847,2 17,2 Z" id="Path" transform="translate(11.500001, 11.000000) scale(-1, 1) translate(-11.500001, -11.000000) "></path>
                        </g>
                    </g>
                </g>
            </g>
        </g>
    </g>
</svg>