<svg xmlns="http://www.w3.org/2000/svg" viewBox="0 0 500 500"><g id="freepik--background-complete--inject-106"><rect x="72.77" y="352.4" width="35.16" height="11.19" style="fill:#ebebeb"></rect><rect x="286.45" y="142.86" width="35.16" height="11.19" style="fill:#ebebeb"></rect><path d="M88.32,377.7,70.86,378l-8.83.12-8.87.05h-.45v-.46l0-11.19V366h.5l17.58.07,8.79.08,8.79.11h.24v.23Zm0,0-.24-11.19.24.24-8.79.11-8.79.08L53.16,367l.5-.5,0,11.19-.46-.46,8.71.05,8.75.12Z" style="fill:#ebebeb"></path><path d="M301.36,424.71,283.9,425l-8.83.12-8.87,0h-.45v-.45l0-11.19V413h.5l17.58.06,8.79.09,8.79.11h.24v.24Zm0,0-.24-11.19.24.23-8.79.11-8.79.09L266.2,414l.5-.5,0,11.19-.46-.46,8.71,0,8.75.12Z" style="fill:#ebebeb"></path><path d="M281.75,438.82l-17.46.29-8.83.12-8.87,0h-.46v-.45l0-11.19v-.51h.5l17.58.06,8.79.09,8.79.11H282v.24Zm0,0-.24-11.19.24.23L273,428l-8.79.09-17.58.07.5-.5L247,438.82l-.45-.46,8.71,0,8.75.12Z" style="fill:#ebebeb"></path><rect x="227.05" y="413.52" width="35.16" height="11.19" style="fill:#ebebeb"></rect><rect x="411.68" y="366.51" width="35.16" height="11.19" style="fill:#ebebeb"></rect><rect x="392.07" y="44.93" width="35.16" height="11.19" style="fill:#ebebeb"></rect><path d="M446.84,70.23l-17.46.3-8.83.12-8.87,0h-.45v-.46L411.18,59v-.5h.5l17.58.07,8.79.09,8.79.11h.24V59Zm0,0L446.6,59l.24.24-8.79.11-8.79.08-17.58.07.5-.5,0,11.19-.46-.45,8.71,0,8.75.12Z" style="fill:#ebebeb"></path><path d="M107.93,56.12l-17.46.3-8.83.12-8.87,0h-.45v-.46l0-11.19v-.5h.5l17.58.07,8.79.09,8.79.11h.24v.23Zm0,0-.24-11.19.24.24-8.79.11-8.79.08-17.58.07.5-.5,0,11.19-.46-.45,8.71,0,8.75.12Z" style="fill:#ebebeb"></path></g><g id="freepik--Window--inject-106"><path d="M81.8,53.19V339.1H418.21V53.19ZM410.88,331.76H89.14V60.53H410.88Z" style="fill:#dbdbdb"></path><rect x="89.14" y="60.53" width="321.74" height="271.23" style="fill:#fff"></rect><g style="opacity:0.5"><rect x="296.97" y="105.52" width="71.21" height="226.24" style="fill:#ebebeb"></rect><rect x="296.97" y="98.24" width="72.92" height="7.28" transform="translate(666.87 203.76) rotate(180)" style="fill:#c7c7c7"></rect><rect x="354.53" y="116.25" width="7.21" height="215.51" style="fill:#fff"></rect><rect x="341.75" y="116.25" width="7.21" height="215.51" style="fill:#fff"></rect><rect x="328.97" y="116.25" width="7.22" height="215.51" style="fill:#fff"></rect><rect x="316.19" y="116.25" width="7.22" height="215.51" style="fill:#fff"></rect><rect x="303.41" y="116.25" width="7.22" height="215.51" style="fill:#fff"></rect><rect x="354.53" y="125.45" width="7.21" height="14.37" transform="translate(716.28 265.28) rotate(180)" style="fill:#ebebeb"></rect><rect x="341.75" y="125.45" width="7.21" height="14.37" transform="translate(690.72 265.28) rotate(180)" style="fill:#ebebeb"></rect><rect x="328.97" y="125.45" width="7.21" height="14.37" transform="translate(665.16 265.28) rotate(180)" style="fill:#ebebeb"></rect><rect x="316.19" y="125.45" width="7.22" height="14.37" transform="translate(639.6 265.28) rotate(180)" style="fill:#ebebeb"></rect><rect x="303.41" y="125.45" width="7.21" height="14.37" transform="translate(614.04 265.28) rotate(180)" style="fill:#ebebeb"></rect><rect x="354.53" y="148.81" width="7.21" height="14.37" transform="translate(716.28 312) rotate(180)" style="fill:#ebebeb"></rect><rect x="341.75" y="148.81" width="7.21" height="14.37" transform="translate(690.72 312) rotate(180)" style="fill:#ebebeb"></rect><rect x="328.97" y="148.81" width="7.21" height="14.37" transform="translate(665.16 312) rotate(180)" style="fill:#ebebeb"></rect><rect x="316.19" y="148.81" width="7.22" height="14.37" transform="translate(639.6 312) rotate(180)" style="fill:#ebebeb"></rect><rect x="303.41" y="148.81" width="7.21" height="14.37" transform="translate(614.04 312) rotate(180)" style="fill:#ebebeb"></rect><rect x="354.53" y="172.17" width="7.21" height="14.37" transform="translate(716.28 358.71) rotate(180)" style="fill:#ebebeb"></rect><rect x="341.75" y="172.17" width="7.21" height="14.37" transform="translate(690.72 358.71) rotate(180)" style="fill:#ebebeb"></rect><rect x="328.97" y="172.17" width="7.21" height="14.37" transform="translate(665.16 358.71) rotate(180)" style="fill:#ebebeb"></rect><rect x="316.19" y="172.17" width="7.22" height="14.37" transform="translate(639.6 358.71) rotate(180)" style="fill:#ebebeb"></rect><rect x="303.41" y="172.17" width="7.21" height="14.37" transform="translate(614.04 358.71) rotate(180)" style="fill:#ebebeb"></rect><rect x="354.53" y="195.53" width="7.21" height="14.37" transform="translate(716.28 405.43) rotate(180)" style="fill:#ebebeb"></rect><rect x="341.75" y="195.53" width="7.21" height="14.37" transform="translate(690.72 405.43) rotate(180)" style="fill:#ebebeb"></rect><rect x="328.97" y="195.53" width="7.21" height="14.37" transform="translate(665.16 405.43) rotate(180)" style="fill:#ebebeb"></rect><rect x="316.19" y="195.53" width="7.22" height="14.37" transform="translate(639.6 405.43) rotate(180)" style="fill:#ebebeb"></rect><rect x="303.41" y="195.53" width="7.21" height="14.37" transform="translate(614.04 405.43) rotate(180)" style="fill:#ebebeb"></rect><rect x="354.53" y="218.89" width="7.21" height="14.37" transform="translate(716.28 452.15) rotate(180)" style="fill:#ebebeb"></rect><rect x="341.75" y="218.89" width="7.21" height="14.37" transform="translate(690.72 452.15) rotate(180)" style="fill:#ebebeb"></rect><rect x="328.97" y="218.89" width="7.21" height="14.37" transform="translate(665.16 452.15) rotate(180)" style="fill:#ebebeb"></rect><rect x="316.19" y="218.89" width="7.22" height="14.37" transform="translate(639.6 452.15) rotate(180)" style="fill:#ebebeb"></rect><rect x="303.41" y="218.89" width="7.21" height="14.37" transform="translate(614.04 452.15) rotate(180)" style="fill:#ebebeb"></rect><rect x="354.53" y="242.25" width="7.21" height="14.37" transform="translate(716.28 498.87) rotate(180)" style="fill:#ebebeb"></rect><rect x="341.75" y="242.25" width="7.21" height="14.37" transform="translate(690.72 498.87) rotate(180)" style="fill:#ebebeb"></rect><rect x="328.97" y="242.25" width="7.21" height="14.37" transform="translate(665.16 498.87) rotate(180)" style="fill:#ebebeb"></rect><rect x="316.19" y="242.25" width="7.22" height="14.37" transform="translate(639.6 498.87) rotate(180)" style="fill:#ebebeb"></rect><rect x="303.41" y="242.25" width="7.21" height="14.37" transform="translate(614.04 498.87) rotate(180)" style="fill:#ebebeb"></rect><rect x="354.53" y="265.61" width="7.21" height="14.37" transform="translate(716.28 545.59) rotate(180)" style="fill:#ebebeb"></rect><rect x="341.75" y="265.61" width="7.21" height="14.37" transform="translate(690.72 545.59) rotate(180)" style="fill:#ebebeb"></rect><rect x="328.97" y="265.61" width="7.21" height="14.37" transform="translate(665.16 545.59) rotate(180)" style="fill:#ebebeb"></rect><rect x="316.19" y="265.61" width="7.22" height="14.37" transform="translate(639.6 545.59) rotate(180)" style="fill:#ebebeb"></rect><rect x="303.41" y="265.61" width="7.21" height="14.37" transform="translate(614.04 545.59) rotate(180)" style="fill:#ebebeb"></rect><rect x="354.53" y="288.97" width="7.21" height="14.37" transform="translate(716.28 592.3) rotate(180)" style="fill:#ebebeb"></rect><rect x="341.75" y="288.97" width="7.21" height="14.37" transform="translate(690.72 592.3) rotate(180)" style="fill:#ebebeb"></rect><rect x="328.97" y="288.97" width="7.21" height="14.37" transform="translate(665.16 592.3) rotate(180)" style="fill:#ebebeb"></rect><rect x="316.19" y="288.97" width="7.22" height="14.37" transform="translate(639.6 592.3) rotate(180)" style="fill:#ebebeb"></rect><rect x="303.41" y="288.97" width="7.21" height="14.37" transform="translate(614.04 592.3) rotate(180)" style="fill:#ebebeb"></rect><rect x="354.53" y="312.33" width="7.21" height="14.37" transform="translate(716.28 639.02) rotate(180)" style="fill:#ebebeb"></rect><rect x="341.75" y="312.33" width="7.21" height="14.37" transform="translate(690.72 639.02) rotate(180)" style="fill:#ebebeb"></rect><rect x="328.97" y="312.33" width="7.21" height="14.37" transform="translate(665.16 639.02) rotate(180)" style="fill:#ebebeb"></rect><rect x="316.19" y="312.33" width="7.22" height="14.37" transform="translate(639.6 639.02) rotate(180)" style="fill:#ebebeb"></rect><rect x="303.41" y="312.33" width="7.21" height="14.37" transform="translate(614.04 639.02) rotate(180)" style="fill:#ebebeb"></rect><rect x="251.25" y="105.52" width="45.72" height="226.24" style="fill:#dbdbdb"></rect><rect x="249.28" y="98.24" width="47.7" height="7.28" transform="translate(546.25 203.76) rotate(180)" style="fill:#c7c7c7"></rect><rect x="283.32" y="116.25" width="7.21" height="215.51" style="fill:#c7c7c7"></rect><rect x="270.54" y="116.25" width="7.21" height="215.51" style="fill:#c7c7c7"></rect><rect x="257.76" y="116.25" width="7.21" height="215.51" style="fill:#c7c7c7"></rect><rect x="283.32" y="125.45" width="7.22" height="14.37" transform="translate(573.85 265.28) rotate(180)" style="fill:#dbdbdb"></rect><rect x="270.54" y="125.45" width="7.21" height="14.37" transform="translate(548.29 265.28) rotate(180)" style="fill:#dbdbdb"></rect><rect x="257.76" y="125.45" width="7.21" height="14.37" transform="translate(522.73 265.28) rotate(180)" style="fill:#dbdbdb"></rect><rect x="283.32" y="148.81" width="7.22" height="14.37" transform="translate(573.85 312) rotate(180)" style="fill:#dbdbdb"></rect><rect x="270.54" y="148.81" width="7.21" height="14.37" transform="translate(548.29 312) rotate(180)" style="fill:#dbdbdb"></rect><rect x="257.76" y="148.81" width="7.21" height="14.37" transform="translate(522.73 312) rotate(180)" style="fill:#dbdbdb"></rect><rect x="283.32" y="172.17" width="7.22" height="14.37" transform="translate(573.85 358.71) rotate(180)" style="fill:#dbdbdb"></rect><rect x="270.54" y="172.17" width="7.21" height="14.37" transform="translate(548.29 358.71) rotate(180)" style="fill:#dbdbdb"></rect><rect x="257.76" y="172.17" width="7.21" height="14.37" transform="translate(522.73 358.71) rotate(180)" style="fill:#dbdbdb"></rect><rect x="283.32" y="195.53" width="7.22" height="14.37" transform="translate(573.85 405.43) rotate(180)" style="fill:#dbdbdb"></rect><rect x="270.54" y="195.53" width="7.21" height="14.37" transform="translate(548.29 405.43) rotate(180)" style="fill:#dbdbdb"></rect><rect x="257.76" y="195.53" width="7.21" height="14.37" transform="translate(522.73 405.43) rotate(180)" style="fill:#dbdbdb"></rect><rect x="283.32" y="218.89" width="7.22" height="14.37" transform="translate(573.85 452.15) rotate(180)" style="fill:#dbdbdb"></rect><rect x="270.54" y="218.89" width="7.21" height="14.37" transform="translate(548.29 452.15) rotate(180)" style="fill:#dbdbdb"></rect><rect x="257.76" y="218.89" width="7.21" height="14.37" transform="translate(522.73 452.15) rotate(180)" style="fill:#dbdbdb"></rect><rect x="283.32" y="242.25" width="7.22" height="14.37" transform="translate(573.85 498.87) rotate(180)" style="fill:#dbdbdb"></rect><rect x="270.54" y="242.25" width="7.21" height="14.37" transform="translate(548.29 498.87) rotate(180)" style="fill:#dbdbdb"></rect><rect x="257.76" y="242.25" width="7.21" height="14.37" transform="translate(522.73 498.87) rotate(180)" style="fill:#dbdbdb"></rect><rect x="283.32" y="265.61" width="7.22" height="14.37" transform="translate(573.85 545.59) rotate(180)" style="fill:#dbdbdb"></rect><rect x="270.54" y="265.61" width="7.21" height="14.37" transform="translate(548.29 545.59) rotate(180)" style="fill:#dbdbdb"></rect><rect x="257.76" y="265.61" width="7.21" height="14.37" transform="translate(522.73 545.59) rotate(180)" style="fill:#dbdbdb"></rect><rect x="283.32" y="288.97" width="7.22" height="14.37" transform="translate(573.85 592.3) rotate(180)" style="fill:#dbdbdb"></rect><rect x="270.54" y="288.97" width="7.21" height="14.37" transform="translate(548.29 592.3) rotate(180)" style="fill:#dbdbdb"></rect><rect x="257.76" y="288.97" width="7.21" height="14.37" transform="translate(522.73 592.3) rotate(180)" style="fill:#dbdbdb"></rect><rect x="283.32" y="312.33" width="7.22" height="14.37" transform="translate(573.85 639.02) rotate(180)" style="fill:#dbdbdb"></rect><rect x="270.54" y="312.33" width="7.21" height="14.37" transform="translate(548.29 639.02) rotate(180)" style="fill:#dbdbdb"></rect><rect x="257.76" y="312.33" width="7.21" height="14.37" transform="translate(522.73 639.02) rotate(180)" style="fill:#dbdbdb"></rect><rect x="386.67" y="227.74" width="24.21" height="104.02" style="fill:#ebebeb"></rect><rect x="386.67" y="209.9" width="24.21" height="17.84" style="fill:#c7c7c7"></rect><rect x="394.45" y="237.05" width="16.43" height="94.71" style="fill:#dbdbdb"></rect><rect x="394.45" y="256.23" width="16.43" height="4.75" style="fill:#fff"></rect><rect x="394.45" y="275.91" width="16.43" height="4.75" style="fill:#fff"></rect><rect x="394.45" y="295.59" width="16.43" height="4.75" style="fill:#fff"></rect><rect x="394.45" y="315.27" width="16.43" height="4.75" style="fill:#fff"></rect><rect x="342.26" y="227.74" width="44.41" height="104.02" style="fill:#dbdbdb"></rect><rect x="348.93" y="209.9" width="37.75" height="17.84" transform="translate(735.6 437.64) rotate(180)" style="fill:#a6a6a6"></rect><rect x="346.4" y="237.05" width="34.15" height="94.71" style="fill:#c7c7c7"></rect><rect x="346.4" y="256.23" width="34.15" height="4.75" transform="translate(726.95 517.21) rotate(180)" style="fill:#fff"></rect><rect x="346.4" y="275.91" width="34.15" height="4.75" transform="translate(726.95 556.57) rotate(180)" style="fill:#fff"></rect><rect x="346.4" y="295.59" width="34.15" height="4.75" transform="translate(726.95 595.92) rotate(180)" style="fill:#fff"></rect><rect x="346.4" y="315.26" width="34.15" height="4.75" transform="translate(726.95 635.28) rotate(180)" style="fill:#fff"></rect><rect x="176.61" y="173.7" width="37.87" height="44.74" transform="translate(391.1 392.13) rotate(180)" style="fill:#dbdbdb"></rect><rect x="152.6" y="173.7" width="24.01" height="46.38" transform="translate(329.22 393.77) rotate(180)" style="fill:#c7c7c7"></rect><rect x="151" y="193.45" width="23.83" height="26.62" transform="translate(325.84 413.52) rotate(180)" style="fill:#dbdbdb"></rect><rect x="136.14" y="193.45" width="14.86" height="26.62" transform="translate(287.14 413.52) rotate(180)" style="fill:#c7c7c7"></rect><rect x="167.77" y="215.53" width="61.24" height="116.23" style="fill:#ebebeb"></rect><rect x="202.75" y="225.09" width="19.26" height="7.87" transform="translate(424.76 458.05) rotate(180)" style="fill:#fff"></rect><rect x="178.12" y="225.09" width="19.26" height="7.87" transform="translate(375.5 458.05) rotate(180)" style="fill:#fff"></rect><rect x="202.75" y="238.45" width="19.26" height="7.87" transform="translate(424.76 484.77) rotate(180)" style="fill:#fff"></rect><rect x="178.12" y="238.45" width="19.26" height="7.87" transform="translate(375.5 484.77) rotate(180)" style="fill:#fff"></rect><rect x="202.75" y="251.81" width="19.26" height="7.87" transform="translate(424.76 511.48) rotate(180)" style="fill:#fff"></rect><rect x="178.12" y="251.81" width="19.26" height="7.87" transform="translate(375.5 511.48) rotate(180)" style="fill:#fff"></rect><rect x="202.75" y="265.17" width="19.26" height="7.87" transform="translate(424.76 538.2) rotate(180)" style="fill:#fff"></rect><rect x="178.12" y="265.17" width="19.26" height="7.87" transform="translate(375.5 538.2) rotate(180)" style="fill:#fff"></rect><rect x="202.75" y="278.52" width="19.26" height="7.87" transform="translate(424.76 564.92) rotate(180)" style="fill:#fff"></rect><rect x="178.12" y="278.52" width="19.26" height="7.87" transform="translate(375.5 564.92) rotate(180)" style="fill:#fff"></rect><rect x="202.75" y="291.88" width="19.26" height="7.87" transform="translate(424.76 591.64) rotate(180)" style="fill:#fff"></rect><rect x="178.12" y="291.88" width="19.26" height="7.87" transform="translate(375.5 591.64) rotate(180)" style="fill:#fff"></rect><rect x="202.75" y="305.24" width="19.26" height="7.87" transform="translate(424.76 618.35) rotate(180)" style="fill:#fff"></rect><rect x="178.12" y="305.24" width="19.26" height="7.87" transform="translate(375.5 618.35) rotate(180)" style="fill:#fff"></rect><rect x="202.75" y="318.6" width="19.26" height="7.87" transform="translate(424.76 645.07) rotate(180)" style="fill:#fff"></rect><rect x="178.12" y="318.6" width="19.26" height="7.87" transform="translate(375.5 645.07) rotate(180)" style="fill:#fff"></rect><rect x="118.15" y="215.53" width="49.62" height="116.23" style="fill:#c7c7c7"></rect><rect x="123.13" y="318.6" width="15.81" height="7.87" style="fill:#ebebeb"></rect><rect x="143.35" y="318.6" width="15.81" height="7.87" style="fill:#ebebeb"></rect><rect x="123.13" y="305.24" width="15.81" height="7.87" style="fill:#ebebeb"></rect><rect x="143.35" y="305.24" width="15.81" height="7.87" style="fill:#ebebeb"></rect><rect x="123.13" y="291.88" width="15.81" height="7.87" style="fill:#ebebeb"></rect><rect x="143.35" y="291.88" width="15.81" height="7.87" style="fill:#ebebeb"></rect><rect x="123.13" y="278.52" width="15.81" height="7.87" style="fill:#ebebeb"></rect><rect x="143.35" y="278.52" width="15.81" height="7.87" style="fill:#ebebeb"></rect><rect x="123.13" y="265.17" width="15.81" height="7.87" style="fill:#ebebeb"></rect><rect x="143.35" y="265.17" width="15.81" height="7.87" style="fill:#ebebeb"></rect><rect x="123.13" y="251.81" width="15.81" height="7.87" style="fill:#ebebeb"></rect><rect x="143.35" y="251.81" width="15.81" height="7.87" style="fill:#ebebeb"></rect><rect x="123.13" y="238.45" width="15.81" height="7.87" style="fill:#ebebeb"></rect><rect x="143.35" y="238.45" width="15.81" height="7.87" style="fill:#ebebeb"></rect><rect x="123.13" y="225.09" width="15.81" height="7.87" style="fill:#ebebeb"></rect><rect x="143.35" y="225.09" width="15.81" height="7.87" style="fill:#ebebeb"></rect></g><rect x="89.13" y="192.47" width="321.74" height="7.33" transform="translate(500 392.28) rotate(180)" style="fill:#c7c7c7"></rect><path d="M229,113.28H152.32s3.81-5,8-5.58c0,0,8.17-24.33,21.85-24.5,12.72-.16,17.82,15,17.82,15s5.89-6.78,11.52-3.68,8.82,12,8.82,12S226.67,109.87,229,113.28Z" style="fill:#ebebeb"></path><path d="M101.14,158.07h56.37s-2.81-3.65-5.9-4.1c0,0-6-17.89-16.06-18-9.36-.12-13.11,11-13.11,11s-4.33-5-8.47-2.7-6.48,8.8-6.48,8.8S102.83,155.56,101.14,158.07Z" style="fill:#ebebeb"></path><rect x="55.98" y="339.1" width="388.04" height="21.05" transform="translate(500 699.25) rotate(180)" style="fill:#c7c7c7"></rect><path d="M89.13,60.52H410.87V331.76H89.13Zm315,6.79H95.92V325H404.08Z" style="fill:#c7c7c7"></path><rect x="302.57" y="60.52" width="3.67" height="264.45" style="fill:#c7c7c7"></rect><rect x="193.77" y="60.52" width="3.67" height="264.45" style="fill:#c7c7c7"></rect></g><g id="freepik--Floor--inject-106"><polygon points="45.42 460.32 96.57 460.07 147.71 459.99 250 459.82 352.29 459.98 403.43 460.07 454.57 460.32 403.43 460.56 352.29 460.65 250 460.82 147.71 460.65 96.57 460.56 45.42 460.32" style="fill:#263238"></polygon></g><g id="freepik--Plant--inject-106"><path d="M400,228.11a43.92,43.92,0,0,1-.86,16.86,46.66,46.66,0,0,1-2.58,7.46c-1.34,3.08-2.74,6.09-2.41,9.47.33.22-.79.18-.82-.15-9-5.13-20.59-6.07-27.53-14.47-3.29-4-4.95-9-5.74-14.06-.85-5.49-1.09-11.56.33-17,1.19-4.58,3.87-9,8.17-11.23s10.24-2.12,14.92-.67C393.56,207.48,398.57,218.36,400,228.11Z" style="fill:#BA68C8"></path><path d="M404.63,294.88c-1.24-4.1-2.47-8.2-3.73-12.3-2.47-8-5-16-7.89-23.89q-2.56-7.09-5.4-14.05a86.11,86.11,0,0,1,1.07-8.72c.76-3.5,1.85-6.87,2.87-10.3.07-.21-.28-.32-.36-.12-2,4.72-4.67,10.75-4.74,16.33q-3.3-7.86-7.08-15.51a65.86,65.86,0,0,1,.39-12.93c0-.19-.27-.25-.3-.06a45.32,45.32,0,0,0-.88,11.41q-2.91-5.75-6.16-11.33c-.2-.34-.66,0-.49.34,3.39,6.52,6.54,13.19,9.49,19.94a43.46,43.46,0,0,0-14.15-8.19c-.22-.08-.39.24-.16.34A51.51,51.51,0,0,1,382.41,236q3.18,7.41,6.06,14.95c-5.64-5.53-13.37-9.17-20.84-11.13-.25-.06-.32.33-.08.4,8.65,2.6,15.37,7.51,21.94,13.39.76,2,1.51,4.07,2.25,6.11q4.18,11.6,8,23.33,1.82,5.61,3.58,11.26c1.26,4,2.25,8.31,3.89,12.22.15.37.83.29.74-.16A118.57,118.57,0,0,0,404.63,294.88Z" style="fill:#263238"></path><path d="M389.66,220.22a22.54,22.54,0,0,0-3.25,8.09c0,.08.11.12.13.05a69.65,69.65,0,0,1,3.53-8C390.2,220.15,389.82,220,389.66,220.22Z" style="fill:#263238"></path><path d="M373.57,239a23.69,23.69,0,0,0-8.09-2.73c-.08,0-.12.1-.05.13,1.31.54,2.67.92,4,1.43s2.61,1.12,3.95,1.59A.23.23,0,0,0,373.57,239Z" style="fill:#263238"></path><path d="M369,216.4a16.28,16.28,0,0,0-2.6-1.61.14.14,0,0,0-.15.23,15.64,15.64,0,0,0,2.56,1.67C369,216.79,369.2,216.51,369,216.4Z" style="fill:#263238"></path><path d="M430.4,258.75c-6.49,1.93-13,3.71-19.52,5.61-.56.17-11.54-20.87-7.57-31.71,3.66-10,12.06-17.55,22.08-21,4.63-1.58,10.34-2.9,15.24-1.82,4.35,1,7.43,4.53,8.85,8.63,1.93,5.56,1.28,12.21.23,17.89A31.17,31.17,0,0,1,443.32,251C439.87,255.11,435.47,257.25,430.4,258.75Z" style="fill:#BA68C8"></path><path d="M439.82,238.75a86.86,86.86,0,0,1-12.74,5,53.77,53.77,0,0,0-8.5,3.08c2.75-6.12,5.76-12.11,8.95-18,4.2-1.21,8.61-3.11,11.78-6.08.17-.16-.05-.4-.24-.27-3.46,2.44-7.28,3.91-11.11,5.57.87-1.6,1.74-3.2,2.63-4.79.24-.44-.37-.88-.66-.45a136.8,136.8,0,0,0-9.23,15.5,70.12,70.12,0,0,1-.67-14.2.1.1,0,0,0-.19,0,47.22,47.22,0,0,0,.16,15.6c-2.28,4.55-4.35,9.21-6.22,13.93-.74-2.84-1.7-5.63-2.35-8.48a39.31,39.31,0,0,1-.93-12.51c0-.12-.17-.13-.19,0a44,44,0,0,0,2.73,23c-1.09,2.84-2.12,5.69-3.07,8.55a170.3,170.3,0,0,0-8.62,45.07.27.27,0,0,0,.54,0,223.92,223.92,0,0,1,9.69-44.54c1.88-5.67,4.05-11.16,6.43-16.56,3.83-1.13,7.66-2.67,11.43-4A36.08,36.08,0,0,0,440,239,.13.13,0,0,0,439.82,238.75Z" style="fill:#263238"></path><path d="M445.88,232.63c-4,1.42-7.74,3.4-11.71,4.83-.18.06-.08.36.11.32,4.2-.87,8.37-2.16,11.75-4.92C446.16,232.76,446,232.58,445.88,232.63Z" style="fill:#263238"></path><path d="M413.44,224.06c.05-.21-.26-.33-.33-.11-1.09,3.66-1.84,7.55-.78,11.29a.14.14,0,0,0,.28,0C412.8,231.45,412.59,227.78,413.44,224.06Z" style="fill:#263238"></path><path d="M429.85,215.6a9.68,9.68,0,0,0-1.72,6.23c0,.14.23.22.27.06.48-2.1,1.29-4,1.93-6A.27.27,0,0,0,429.85,215.6Z" style="fill:#263238"></path><path d="M353.13,268c1.91,6,6.43,14.4,13.6,14.47,4.64,0,9.32-.51,14-.58,5-.07,10-.06,15,.23.41,0-.6-14.93-12.58-22.21-3.36-2-7.47-2.69-11.28-3.52A52.41,52.41,0,0,0,358.49,255c-2.75.11-5,.69-6,3.51S352.22,265.16,353.13,268Z" style="fill:#BA68C8"></path><path d="M358.29,260.46c2.91.75,5.85,1.61,8.77,2.54a29.7,29.7,0,0,0-2.41-2.35c-1.26-1-2.64-1.88-4-2.8-.11-.07,0-.29.1-.23a16.45,16.45,0,0,1,7.07,5.62c3.64,1.18,7.25,2.48,10.73,3.9a40.28,40.28,0,0,1,6.86,3.62,27.71,27.71,0,0,0-2.48-4.33c-1.59-2.06-3.74-3.21-5.83-4.67a.19.19,0,0,1,.19-.32,17.06,17.06,0,0,1,9.35,10.14,39.83,39.83,0,0,1,6.8,6.17c7.93,9,14.17,21,14.2,33.22,0,.3-.47.38-.53.07A67.85,67.85,0,0,0,392,278.56c-.57-.66-1.15-1.29-1.75-1.9a55,55,0,0,0-6.55-.49c-2.55,0-5.08.37-7.62.58-4.19.34-8.81.39-12.59-1.71-.16-.1-.05-.39.14-.32,8.41,3.06,17.24-.82,25.67,1a39.46,39.46,0,0,0-12.44-8l-.77-.31c-5.4.65-11.1,2.06-16.36.3a.13.13,0,0,1,.07-.25c5.08,1.27,9.95-.32,15-.58-5.47-2.12-11-3.81-16.51-5.92C357.8,260.76,357.79,260.34,358.29,260.46Z" style="fill:#263238"></path><path d="M355.91,265.78a73.84,73.84,0,0,0,7.86.6.06.06,0,0,1,0,.11,16.3,16.3,0,0,1-7.93-.51C355.72,265.94,355.78,265.76,355.91,265.78Z" style="fill:#263238"></path><path d="M373.66,260.6a12.83,12.83,0,0,1,3.89,2.7c.13.12-.05.37-.2.26-.66-.48-1.34-.93-2-1.38a16.91,16.91,0,0,1-1.9-1.2C373.25,260.84,373.44,260.52,373.66,260.6Z" style="fill:#263238"></path><path d="M416,280.06c-.09.2.2.38.31.17h0a.26.26,0,0,0,.19.12,119.57,119.57,0,0,0,14.64,2.56c4,.35,8.53.57,12-1.73,4.7-3.12,7.79-11.45,5.25-16.74-3-6.29-12.06-2.88-16.61-.64A33.34,33.34,0,0,0,416,280.06Z" style="fill:#BA68C8"></path><path d="M412.47,283a46.61,46.61,0,0,1,8.74-6.65,30,30,0,0,1,8.86-9c.18-.12.32.16.17.28a40.32,40.32,0,0,0-7.48,7.86,82.85,82.85,0,0,1,11-5,14.66,14.66,0,0,1,5.9-5.91s.11.05.06.08a24.09,24.09,0,0,0-5.32,5.59c2.23-.83,4.48-1.61,6.73-2.35.2-.07.27.24.08.31-4,1.57-8.1,3.22-12.06,5.12a46.5,46.5,0,0,0,14.61,0c.13,0,.19.17.06.21a28.87,28.87,0,0,1-15.51.23,71.29,71.29,0,0,0-7.35,4.12,18.48,18.48,0,0,1,5.94.48,45.4,45.4,0,0,0,10.45,1.19c.13,0,.16.21,0,.23-6.06,1-11.79-1.71-17.8-1a45.7,45.7,0,0,0-6.25,5.11,46.85,46.85,0,0,0-9.13,12.87c-2.52,5.14-3.9,10.6-5.94,15.92a.19.19,0,0,1-.37-.11C399.61,302,404.83,290.44,412.47,283Z" style="fill:#263238"></path><path d="M430.74,268.59a6.83,6.83,0,0,1,1.55-1.88,6,6,0,0,1,1.79-1.34c.06,0,.1.06.06.1-.49.56-1.19,1-1.72,1.51s-1,1.18-1.54,1.72C430.81,268.77,430.7,268.68,430.74,268.59Z" style="fill:#263238"></path><path d="M440.74,271.84c.9-.22,1.85-.21,2.76-.39a25,25,0,0,0,2.68-.81.11.11,0,0,1,.08.2,8.83,8.83,0,0,1-5.52,1.28C440.59,272.1,440.6,271.88,440.74,271.84Z" style="fill:#263238"></path><polygon points="387.5 299.56 388.29 308.6 390.99 339.1 414.88 339.1 418.25 308.6 419.24 299.56 387.5 299.56" style="fill:#37474f"></polygon><polygon points="387.5 299.56 388.29 308.6 418.25 308.6 419.24 299.56 387.5 299.56" style="fill:#263238"></polygon><rect x="385.13" y="297.1" width="36.48" height="7.33" transform="translate(806.74 601.53) rotate(180)" style="fill:#37474f"></rect></g><g id="freepik--Character--inject-106"><path d="M401.29,435.69c-3.43,0-90.88-31.28-93.54-34.51-.29-.35,1.26-4.15,3.74-14.55.11-.5-1.17-3.09-3.28-6.85-7.93-14.13-27.45-45-27.45-45l57.59-21.25,26.38,57.19,6.86,14.87s28.23,32.59,30.79,36.45S404.71,435.68,401.29,435.69Z" style="fill: rgb(119, 68, 66);"></path><path d="M401.29,435.69c-3.43,0-90.88-31.28-93.54-34.5-.29-.36,1.27-4.15,3.74-14.56.12-.49-1.17-3.08-3.28-6.86-2.76-4.91-4.09-7.18-8.33-14.13l62.77.6,2.08,4.49,6.85,14.87s28.24,32.59,30.79,36.46S404.72,435.68,401.29,435.69Z" style="fill:#ebebeb"></path><path d="M406.82,439.16c-3.42-.1-96.34-34.11-98.89-37.43-.6-.77.71-6.42,2.93-14,.27-1-6.26-12-7-13.86l63.94,2.36,4.61,9.45s34.38,35.22,36.79,39.15S410.23,439.25,406.82,439.16Z" style="fill:#BA68C8"></path><path d="M406.84,435.22c-14.47-5.69-79.19-29.49-93.92-34-.12,0-.15,0,0,.09,14.22,5.95,79.12,29.27,93.87,34.16C407.07,435.56,407.15,435.34,406.84,435.22Z" style="fill:#263238"></path><path d="M376.78,388c-5.35-3.17-12.7-4.85-18.59-2.36-.22.1-.08.42.12.43a86,86,0,0,1,18.18,2.65A.39.39,0,0,0,376.78,388Z" style="fill:#263238"></path><path d="M380,392.06c-5.35-3.17-12.7-4.86-18.58-2.37-.23.1-.09.42.12.43a86.09,86.09,0,0,1,18.18,2.66A.39.39,0,0,0,380,392.06Z" style="fill:#263238"></path><path d="M383.25,396.07c-5.36-3.17-12.7-4.85-18.59-2.36-.23.09-.09.42.12.43A86.07,86.07,0,0,1,383,396.79.39.39,0,0,0,383.25,396.07Z" style="fill:#263238"></path><path d="M386.48,400.09c-5.35-3.17-12.7-4.86-18.59-2.37-.22.1-.08.42.12.43a85.88,85.88,0,0,1,18.18,2.65A.39.39,0,0,0,386.48,400.09Z" style="fill:#263238"></path><path d="M392.24,378.64c-1.12-3.94-5.83-4.08-9-2.94a32.64,32.64,0,0,0-13.65,9.93.17.17,0,0,0,.06.26.75.75,0,0,0,.64,1c5.38,0,11.14.62,16.36-1.05C389.72,384.9,393.3,382.36,392.24,378.64Zm-13.77,6.59c-2.65.07-5.28,0-7.93.19,2.67-1.92,5.24-4,8.11-5.62a35.33,35.33,0,0,1,4.24-2.18c2.28-.93,10.25-1.76,6.94,4.17C388,385.06,381.63,385.14,378.47,385.23Z" style="fill:#263238"></path><path d="M355.56,378.8c4,3.75,9.48,5.63,14.34,8a.76.76,0,0,0,1-.67c.11,0,.2-.08.17-.21A32.64,32.64,0,0,0,363,371.06c-2.35-2.37-6.67-4.26-9.36-1.19C351.09,372.78,353.23,376.61,355.56,378.8Zm-1.09-5c-.46-6.79,6.39-2.61,8-.8a34.24,34.24,0,0,1,2.9,3.79,96.56,96.56,0,0,1,4.92,8.55c-2.32-1.29-4.72-2.37-7.08-3.57C360.44,380.29,354.72,377.49,354.47,373.76Z" style="fill:#263238"></path><path d="M366.2,368.65l-64.09,7.48s-36.69-71.65-41.66-74-101,34.73-138.86,20.58c-39.22-14.66-27.83-48-27.83-48l65.89-14.47c48.86-4.71,105.54-24.91,132.3-10.9C321,264.64,366.2,368.65,366.2,368.65Z" style="fill:#263238"></path><path d="M355.79,357.74c-10.74,1-7.67.6-18.4,1.76-5.25.57-31.63,3.36-36.44,4.7-.1,0-.08.21,0,.21,5,.19,31.3-3.17,36.54-3.83,10.7-1.36,7.61-1.08,18.3-2.55A.15.15,0,1,0,355.79,357.74Z" style="fill:#37474f"></path><path d="M297.47,359.74c-7-13.2-29.92-56.26-30.89-57.9a19.81,19.81,0,0,0-2.56-4,4,4,0,0,0-3.4-1c-1.87.14-3.73.37-5.59.54l-11,1c-14.22,1.31-28.43,2.8-42.67,3.89-13.69,1.05-23.94,3-37.67,2.62a195.08,195.08,0,0,1-40.63-5.22q-2.46-.6-4.9-1.28c-.11,0-.18.14-.06.18a159.69,159.69,0,0,0,39.26,7.06c13.44.86,23.42-.85,36.84-1.79,13.91-1,27.8-2.37,41.67-3.76,7.32-.73,14.65-1.49,22-2.18,1.67-.15,4.23-.89,5.55.46a9.43,9.43,0,0,1,1.33,2.06l1.41,2.49c1.81,3.2,30.16,55.36,31.15,56.93C297.34,360,297.54,359.87,297.47,359.74Z" style="fill:#37474f"></path><path d="M89,275.89s-6.85,39.61,13,55.17,164.89,13.68,186.9,6.57,22.7-42.64-1.36-50.87c-22.89-7.83-120.27-11.64-122.67-12.6-.61-.24,8.63-5.77,8.59-6.11l-22.16-6.77Z" style="fill:#263238"></path><path d="M119.06,274.89c0-.16-.29-.11-.29.05a19.53,19.53,0,0,1-4.58,12.58c-3.37,3.89-8.34,6.07-12.84,8.35-.44.22-.11.9.34.76a39.65,39.65,0,0,0,8-3.42,19.32,19.32,0,0,0,6-5A17.11,17.11,0,0,0,119.06,274.89Z" style="fill:#37474f"></path><path d="M163.23,270c-1-1.29-2.1-2.51-3.15-3.76-2.48-3-5-5.91-7.57-8.76-.25-.27-.73.11-.5.41,1.75,2.29,3.6,4.5,5.43,6.73q1.4,1.72,2.81,3.42a21.59,21.59,0,0,1,2.63,3.34c.68,1.27-.21,2.35-1.53,2.49a4.56,4.56,0,0,1-3.17-1.16c-2.05-1.57-3.66-3.83-5.37-5.75q-1.56-1.76-3.15-3.5c-1.12-1.24-2.33-2.41-3.45-3.64-.07-.08-.21,0-.15.12,1,1.34,1.89,2.75,2.88,4.1s2,2.69,3,4,2,2.48,3,3.68a12.23,12.23,0,0,0,3,2.71c1.88,1.11,5.15,1.35,6.15-1.09A3.4,3.4,0,0,0,163.23,270Z" style="fill:#37474f"></path><path d="M285.85,337.76c-7.58.14-15.15.58-22.73.74s-15,.21-22.56.14q-22.67-.22-45.28-1.76c-15.22-1.06-31.65-2.57-46.77-4.67-7.24-1-14.58-1.84-21.73-3.37a34.33,34.33,0,0,1-17.14-8.76c-9.79-9.5-13.6-23.47-15.17-36.82-.2-1.79-.38-3.58-.52-5.38,0-.12-.2-.12-.19,0,.89,13.68,3,27.95,11.62,38.95a34.25,34.25,0,0,0,14,10.89c6.78,2.71,14.3,3.35,21.45,4.32,15.18,2.06,31.67,3.65,47,4.83s30.77,1.94,46.19,2.17,30.84,0,46.23-.75c1.88-.09,3.76-.2,5.63-.37A.09.09,0,0,0,285.85,337.76Z" style="fill:#37474f"></path><path d="M174.55,267.56a74.61,74.61,0,0,0-11,5.92,88.39,88.39,0,0,0-10.23,7.15c-.09.08,0,.19.12.15,3.75-1.74,7.35-3.91,10.92-6a103.91,103.91,0,0,0,10.46-6.72C175,267.9,174.87,267.43,174.55,267.56Z" style="fill:#37474f"></path><path d="M164.32,274.8q12.28.43,24.55,1t24.53,1.43c8.17.52,16.34,1.16,24.5,1.85s16.32,1.49,24.46,2.48c4.06.5,8.13,1.06,12.17,1.74A91.43,91.43,0,0,1,286.59,286a27.84,27.84,0,0,1,10.7,6.2,27.48,27.48,0,0,1,6.88,10.27,28.78,28.78,0,0,1-1.44,24,24.1,24.1,0,0,1-8.49,8.82A27.42,27.42,0,0,1,282.61,339a27.26,27.26,0,0,0,11.5-3.92,23.76,23.76,0,0,0,8.19-8.85,28.18,28.18,0,0,0,1.15-23.51,27.2,27.2,0,0,0-6.75-9.91,26.91,26.91,0,0,0-10.39-6,90.44,90.44,0,0,0-11.93-2.58c-4-.66-8.09-1.2-12.15-1.69-16.23-2-32.56-3.3-48.89-4.56-8.16-.62-16.33-1.17-24.5-1.7S172.5,275.25,164.32,274.8Z" style="fill:#37474f"></path><path d="M154,193.86c4.53,13.82,24.85,57.78,33.46,60.88,9,3.23,42.28,6.26,54,4.41,4.74-.75,4-34.83-2.42-35-5.12-.17-35.79-.2-39.41-1.52s-27.77-36.78-37.59-45.39C145.16,162.35,151.58,186.41,154,193.86Z" style="fill: rgb(119, 68, 66);"></path><path d="M235.35,259.69c9.28.15,22.36-.46,25.51-3.3,3.32-3,14.54-13.93,16.33-17.31s4-14.79,2.73-18c-1-2.55-4.26-1.44-6.51,4.63-2.53,6.79-5.13,7.78-6.55,9.28s-10.61,5-13.2,3.31c-1.52-1-5-4.76-3.2-7.52s7.55-2.65,10.85-5.62,2.11-8.11.55-8.71-2.3,1.58-8.27,3.8c-3.84,1.42-8.69.43-15.46,4-3.4,1.78-9.35,2.28-9.35,2.28Z" style="fill: rgb(119, 68, 66);"></path><path d="M268.46,249.89c1.69-1.77,8.28-5.51,10.28-8.1s8.25-13.37,6.54-16.7c-2.15-4.17-8.39,3.31-10.8,6.81s-9.72,6.55-9.72,6.55l2.23,6.4Z" style="fill: rgb(119, 68, 66);"></path><path d="M262.89,238.92c1-.53,2-1,3-1.56s2-1.05,3-1.62,1.93-1.15,2.82-1.81a12.63,12.63,0,0,0,2.37-2.26c1.48-1.69,2.91-3.48,4.57-5.07a16.25,16.25,0,0,1,2.7-2.17,4.82,4.82,0,0,1,1.64-.63,1.89,1.89,0,0,1,1.64.46,1.89,1.89,0,0,0-1.58-.2,4.54,4.54,0,0,0-1.43.78,16.34,16.34,0,0,0-2.42,2.29c-1.49,1.68-2.88,3.46-4.37,5.19a12.66,12.66,0,0,1-2.57,2.38,23,23,0,0,1-3,1.71A42.23,42.23,0,0,1,262.89,238.92Z" style="fill:#263238"></path><path d="M266.74,251.17c2.1-1.23,9.41-2.95,12-4.88s11.61-10.49,10.94-14.16c-.84-4.61-8.88.81-12.15,3.48s-11.06,3.54-11.06,3.54l.28,6.77Z" style="fill: rgb(119, 68, 66);"></path><path d="M264.61,239.08c1.11-.22,2.22-.41,3.31-.65s2.2-.44,3.28-.71,2.16-.56,3.18-.94a12.6,12.6,0,0,0,2.88-1.51c1.88-1.2,3.73-2.5,5.75-3.56a16.06,16.06,0,0,1,3.17-1.32,5.1,5.1,0,0,1,1.74-.15,1.85,1.85,0,0,1,1.42.91,1.85,1.85,0,0,0-1.44-.64,4.36,4.36,0,0,0-1.57.35,15.47,15.47,0,0,0-2.94,1.52c-1.88,1.18-3.69,2.49-5.59,3.73a13,13,0,0,1-3.11,1.56,23,23,0,0,1-3.33.8A42.56,42.56,0,0,1,264.61,239.08Z" style="fill:#263238"></path><path d="M260.94,243.56a12.55,12.55,0,0,1-5.41-1.84,22.31,22.31,0,0,1-2.42-1.58,23.4,23.4,0,0,1-2.15-1.91,23.17,23.17,0,0,0-4.36-3.44,25.18,25.18,0,0,0-5.15-2.22,16.6,16.6,0,0,1,5.51,1.56,18.45,18.45,0,0,1,4.68,3.38A28.33,28.33,0,0,0,256,241,18.19,18.19,0,0,0,260.94,243.56Z" style="fill:#263238"></path><path d="M257.52,257.94c2.3-.58,11-3.3,13.92-5.43s12.77-11.64,12.05-15.75c-.91-5.18-9.74.81-13.35,3.76s-10.06,2.89-10.06,2.89l-.32,8.91Z" style="fill: rgb(119, 68, 66);"></path><path d="M276.16,236.34a46.1,46.1,0,0,1-3.63,2.9,31,31,0,0,1-3.6,2.56,13,13,0,0,1-4.13,1.27c-.71.11-1.41.18-2.12.22s-1.57,0-2.34.1a.07.07,0,1,1,0-.13,33.34,33.34,0,0,0,4.19-.82,17.84,17.84,0,0,0,4.12-1.56c2.59-1.38,4.85-3.31,7.43-4.71C276.16,236.11,276.25,236.27,276.16,236.34Z" style="fill:#263238"></path><path d="M268.93,241.8l2.85-2.6c1-.84,2-1.65,3-2.41a19,19,0,0,1,3.38-2,8.3,8.3,0,0,1,1.94-.62,3.69,3.69,0,0,1,2.18.21,2.62,2.62,0,0,1,1.44,1.77,4.27,4.27,0,0,1-.12,2.14,12.52,12.52,0,0,1-1.78,3.54,32.66,32.66,0,0,1-5.11,5.82c.8-1,1.6-2,2.34-3.06a33.64,33.64,0,0,0,2.12-3.17,13.78,13.78,0,0,0,1.52-3.38,3.5,3.5,0,0,0,.08-1.66,1.64,1.64,0,0,0-.92-1.1,4.41,4.41,0,0,0-3.32.38,24.16,24.16,0,0,0-3.33,1.76C273.08,238.76,271.08,240.38,268.93,241.8Z" style="fill:#263238"></path><polygon points="297.28 223.41 290.88 229.08 246.98 229.08 240.58 223.41 297.28 223.41" style="fill:#fff"></polygon><path d="M297.28,223.41l-6.36,5.73h0c-7.32.09-14.63.07-21.95.1l-22,.07h-.09l-.06-.06-6.41-5.67-.49-.43h.65Zm0,0-56.7.25.17-.43,6.39,5.68-.16-.06,22,.06c7.32,0,14.63,0,21.95.1l-.05,0Z" style="fill:#263238"></path><rect x="246.98" y="229.08" width="43.74" height="1.44" style="fill:#BA68C8"></rect><rect x="246.98" y="229.08" width="43.74" height="1.44" style="fill:#fff"></rect><path d="M290.72,230.52l-21.81.15-21.93.1h-.24v-1.94H247l21.87.08c7.29,0,14.58.06,21.87.16h0Zm0,0,0-1.44,0,0q-10.94.15-21.87.15l-21.87.08.25-.25v1.44l-.25-.24,21.81.09Z" style="fill:#263238"></path><path d="M231.27,221.58l-.68,39.51S195,261,185.59,256s-29.28-50.78-34.21-68.28,3.09-20.16,15.77-7.28,31.69,39.83,34,40.4S231.27,221.58,231.27,221.58Z" style="fill:#BA68C8"></path><path d="M220.81,241c.05-3.13.31-15.65.61-18.75,0,0,.09-.06.09,0,.29,3,.4,15.38.36,18.52a170,170,0,0,1-.78,18.75c0,.11-.19.13-.2,0C220.45,253.4,220.73,247.21,220.81,241Z" style="fill:#263238"></path><path d="M202.88,259.71c-7.21-.75-13.91-1.9-17.28-3.7-9.46-5-29.3-50.78-34.22-68.28-1.63-5.82-1.84-10-.92-12.51Z" style="opacity:0.1"></path><path d="M174.26,262.25,85.31,276.37c.22-1.74,26.36-97.18,49.91-106.89,8.62-3.56,19.54-1,22.07,3.72C170.94,198.6,175,261.75,174.26,262.25Z" style="fill:#BA68C8"></path><path d="M153.64,186c-5,.1-11.63-9-13.58-15.55-.14-.45,1.4-4.58,3-9.69,1-3.11,2-6.59,2.69-9.83.14-.67,19.27,9.32,19.27,9.32a52.91,52.91,0,0,0-4.64,12,7.25,7.25,0,0,0-.15,1.36c0,.06,0,.14,0,.23C160.12,176.47,158.48,185.89,153.64,186Z" style="fill: rgb(119, 68, 66);"></path><path d="M147,151.27c-.23,5.69.32,19.67,11.12,22.25a12.29,12.29,0,0,0,2.11.34,2.15,2.15,0,0,0,0-.23,8.26,8.26,0,0,1,.14-1.36,52.81,52.81,0,0,1,4.66-12S151.26,153,147,151.27Z" style="fill:#263238"></path><path d="M150.46,125c-4.44,6.3-7.4,27.76-3.91,33.91,5.07,8.93,16.7,13.45,25.11,6.59,8.16-6.64,11.53-34.68,7.32-40.61C172.77,116.18,157,115.72,150.46,125Z" style="fill: rgb(119, 68, 66);"></path><path d="M166.21,143.92c0-.06-.12.06-.12.12-.11,1.45-.48,3.1-1.84,3.44,0,0-.05.09,0,.09C165.88,147.51,166.34,145.31,166.21,143.92Z" style="fill:#263238"></path><path d="M165.07,142.27c-2.31-.42-3,4.24-.84,4.63S167,142.62,165.07,142.27Z" style="fill:#263238"></path><path d="M174.29,145.13s.1.08.09.14c-.25,1.44-.3,3.13.94,3.8,0,0,0,.09,0,.08C173.73,148.69,173.82,146.45,174.29,145.13Z" style="fill:#263238"></path><path d="M175.8,143.81c2.34.16,1.85,4.84-.32,4.69S173.83,143.67,175.8,143.81Z" style="fill:#263238"></path><path d="M163.82,139.09a17.21,17.21,0,0,0,1.9-.36,3.16,3.16,0,0,0,1.87-.74,1,1,0,0,0,0-1.22,2.5,2.5,0,0,0-2.43-.62,3.6,3.6,0,0,0-2.3,1.24A1.06,1.06,0,0,0,163.82,139.09Z" style="fill:#263238"></path><path d="M178.31,141.79a17.07,17.07,0,0,1-1.83-.61,3.13,3.13,0,0,1-1.76-1,1,1,0,0,1,.14-1.2,2.47,2.47,0,0,1,2.49-.3,3.62,3.62,0,0,1,2.12,1.53A1.07,1.07,0,0,1,178.31,141.79Z" style="fill:#263238"></path><path d="M161.46,156.42c.14.47.23,1.05.67,1.34a4,4,0,0,0,1.56.42,0,0,0,0,1,0,.09,2,2,0,0,1-2-.18,1.55,1.55,0,0,1-.4-1.68C161.32,156.33,161.44,156.35,161.46,156.42Z" style="fill:#263238"></path><path d="M164,152.88a4.94,4.94,0,0,0,3,2.67,6.52,6.52,0,0,0,1.76.33,1.3,1.3,0,0,0,.34,0,1.82,1.82,0,0,0,.33,0,.36.36,0,0,0,.33-.28h0a.38.38,0,0,0,0-.15h0l0-.13c.19-1.11.33-2.81.33-2.81.37.26,2.31,1.49,2.36.9.41-4.85.86-10.24.24-15.15a.14.14,0,0,0-.27,0c-.57,4.64-.33,9.36-.83,14a9.37,9.37,0,0,0-2.22-1c-.17,0-.21,3.31-.33,3.8a.1.1,0,0,1,0,.05c-1.9,0-3.23-.8-4.86-2.32C164.06,152.68,163.93,152.76,164,152.88Z" style="fill:#263238"></path><path d="M167.56,155.6a5.51,5.51,0,0,1-2.59,1,2.44,2.44,0,0,1-1.47-.34c-1-.58-.71-1.54-.27-2.3a5.9,5.9,0,0,1,.83-1.12A7.11,7.11,0,0,0,167.56,155.6Z" style="fill:#263238"></path><path d="M165,156.62a2.44,2.44,0,0,1-1.47-.34c-1-.58-.71-1.54-.27-2.3A2.55,2.55,0,0,1,165,156.62Z" style="fill:#ff9bbc"></path><path d="M144.15,140.41c5.22,2.14,10.1-3.32,10.54-8.86,0,0,13.59,6.57,18-4.62a11.78,11.78,0,0,0,7.55,8.17l.2,4.72c1.6.06,4.51-3.57,2-8,0,0,1.62-5.77-1.44-10.56a8.17,8.17,0,0,0-8-3.92,12.37,12.37,0,0,0-7.87-4.94,10.57,10.57,0,0,0-9.18,3s-7.48-1-10.33,3.64a10.93,10.93,0,0,0-1.36,8.81s-2.42,1.38-2.92,5.94C141.08,136.74,142.58,139.77,144.15,140.41Z" style="fill:#263238"></path><path d="M172.74,125.82a14.64,14.64,0,0,1-.89,2.79,12.2,12.2,0,0,1-1.4,2.53,7.55,7.55,0,0,1-4.64,3,12.18,12.18,0,0,1-5.67-.41c-.91-.33-1.86-.6-2.75-1s-1.79-.82-2.7-1.21c.84.52,1.7,1,2.55,1.51s1.82.79,2.74,1.19a12.19,12.19,0,0,0,6,.58,7.92,7.92,0,0,0,4.93-3.39A12,12,0,0,0,172.74,125.82Z" style="fill:#263238"></path><path d="M177.89,134.82a15.52,15.52,0,0,1-3.55-3.74,10,10,0,0,1-1.09-2.28,11.28,11.28,0,0,1-.48-2.55,6.37,6.37,0,0,0,0,2.68,6.82,6.82,0,0,0,1,2.53,8.73,8.73,0,0,0,1.82,2A7.91,7.91,0,0,0,177.89,134.82Z" style="fill:#263238"></path><path d="M149.36,143s-2.58-8-6.08-7.28-3,11.34.15,13.72a3.73,3.73,0,0,0,5.37-.45Z" style="fill: rgb(119, 68, 66);"></path><path d="M143.51,138.71s-.09,0,0,.09c2.16,1.75,2.75,4.43,2.93,7.07a2.06,2.06,0,0,0-2.78-1.44.08.08,0,0,0,0,.15,2.31,2.31,0,0,1,2.18,1.51,11.27,11.27,0,0,1,.55,2.31c0,.26.49.26.48,0v-.06C147.87,145.2,146.78,140.06,143.51,138.71Z" style="fill:#263238"></path><path d="M138.47,170.33s.58-8.26,2.28-8.92,8.37,8.92,13.4,10.39c3.21.94,6.19-.24,7.07.12s-1,9.11-1.77,10.56-2.81,4.84-6.89,4.56C147,186.67,139.9,177,138.47,170.33Z" style="fill:#BA68C8"></path><path d="M141.54,163.81a24.1,24.1,0,0,1-1.31,6.8,21,21,0,0,1,.41-3.45A22.12,22.12,0,0,1,141.54,163.81Z" style="fill:#263238"></path><path d="M143.62,166.84a23.08,23.08,0,0,1-.41,3.44,21.84,21.84,0,0,1-.91,3.35,23.67,23.67,0,0,1,1.32-6.79Z" style="fill:#263238"></path><path d="M145.69,169.86a24.1,24.1,0,0,1-1.31,6.8,24.1,24.1,0,0,1,1.31-6.8Z" style="fill:#263238"></path><path d="M148.43,172.89a24.12,24.12,0,0,1-1.31,6.79,24.12,24.12,0,0,1,1.31-6.79Z" style="fill:#263238"></path><path d="M151.66,175a29.48,29.48,0,0,1-.41,4,29.14,29.14,0,0,1-.9,3.91,28,28,0,0,1,.41-4A29.14,29.14,0,0,1,151.66,175Z" style="fill:#263238"></path><path d="M155.74,175.55a37.89,37.89,0,0,1-1.31,8.56,37.89,37.89,0,0,1,1.31-8.56Z" style="fill:#263238"></path><path d="M160.12,174.49a24.12,24.12,0,0,1-1.31,6.79,20.72,20.72,0,0,1,.41-3.44A21.81,21.81,0,0,1,160.12,174.49Z" style="fill:#263238"></path><path d="M204.47,158.65s14.64-8.76,13.61-18.28S196.4,126.9,195.6,119.46,203,106.71,203,106.71s-13.25,6.19-12.23,15.6,14.88,14.35,16.79,20.19C210.24,150.63,204.47,158.65,204.47,158.65Z" style="fill:#ebebeb;opacity:0.6000000000000001"></path><path d="M205.24,158.57s-16-3.91-16.83-11.39,18.65-14.46,18-20.31-9.72-8.34-9.72-8.34,14.16,2.2,15,9.6-13.77,14.12-14.2,20.24S205.24,158.57,205.24,158.57Z" style="fill:#ebebeb;opacity:0.6000000000000001"></path><rect x="200.83" y="186.51" width="15.39" height="2.4" transform="translate(-40.71 58.87) rotate(-14.66)" style="fill:#fff"></rect><path d="M215.67,184.6l.67,2.31,0,.06-.07,0c-4.93,1.44-9.89,2.75-14.84,4.07l-.25.07-.06-.25-.6-2.32-.06-.24.23,0c2.52-.64,5-1.3,7.53-1.89Zm0,0-7.47,2.12c-2.47.7-4.91,1.35-7.37,2l.17-.29.62,2.32-.3-.18c5-1.28,9.94-2.56,14.94-3.72l0,.08Z" style="fill:#263238"></path><rect x="200.72" y="186.52" width="15.39" height="1.58" transform="translate(-40.61 58.83) rotate(-14.66)" style="opacity:0.1"></rect><path d="M181.46,186.87a8.71,8.71,0,0,0,9.33,1.39,8.09,8.09,0,0,0,1.39-.83,11,11,0,0,0,1.82-1.65l-2.63-2.31a6.79,6.79,0,0,1-1,.92,5.12,5.12,0,0,1-6.71-.19c-2.79-2.34-5.23-8.7-3.83-11.76.09-.22.61-.67,3.14-.79.47,0,1,0,1.61,0a6,6,0,0,0,1.44-.06l-.38-1.7-.27-1.73a6.26,6.26,0,0,1-.76,0,23.24,23.24,0,0,0-3.57.19c-1.81.28-3.61,1-4.38,2.66C174.43,176,178,183.94,181.46,186.87Z" style="fill:#fff"></path><path d="M181.46,186.87A9.08,9.08,0,0,0,188,189a7.38,7.38,0,0,0,3.3-1.06,9.31,9.31,0,0,0,2.68-2.2v.1l-2.65-2.28h.16a6.54,6.54,0,0,1-2.9,2,5,5,0,0,1-3.52-.31A7.09,7.09,0,0,1,182.3,183a14.68,14.68,0,0,1-1.79-3.06,15.86,15.86,0,0,1-1.08-3.38,8.31,8.31,0,0,1,0-3.58l.16-.43a1.78,1.78,0,0,1,.09-.23.72.72,0,0,1,.21-.24,2.49,2.49,0,0,1,.9-.38,10.75,10.75,0,0,1,1.77-.24c.59,0,1.18,0,1.77,0a10.32,10.32,0,0,0,1.69-.06l-.17.27-.37-1.71-.27-1.73.22.17c-1.17,0-2.27-.05-3.4,0a9.35,9.35,0,0,0-3.23.75,3.86,3.86,0,0,0-2.17,2.37,8.77,8.77,0,0,0-.56,3.29,16.37,16.37,0,0,0,1.54,6.55,17.91,17.91,0,0,0,1.64,3A12.84,12.84,0,0,0,181.46,186.87Zm0,0a12.61,12.61,0,0,1-2.23-2.55,19.84,19.84,0,0,1-2.81-6.16,14.21,14.21,0,0,1-.49-3.37,8.82,8.82,0,0,1,.5-3.37,4.17,4.17,0,0,1,2.24-2.54c2.12-1,4.53-.93,6.73-.95h.19l0,.17.28,1.72.39,1.69.05.22-.22,0a9.21,9.21,0,0,1-1.8.08c-.57,0-1.16,0-1.73.06a10.3,10.3,0,0,0-1.68.24,2.26,2.26,0,0,0-.72.29c-.11.05-.17.43-.28.65a7.93,7.93,0,0,0,0,3.36,15.29,15.29,0,0,0,1,3.29,14.67,14.67,0,0,0,1.71,3,6.7,6.7,0,0,0,2.56,2.2,4.69,4.69,0,0,0,3.29.35,6.18,6.18,0,0,0,2.81-1.87l.08-.08.08.06,2.6,2.34.06.05-.05.06A9.75,9.75,0,0,1,191.3,188a7.52,7.52,0,0,1-3.33,1A9.11,9.11,0,0,1,181.46,186.87Z" style="fill:#263238"></path><path d="M191.37,183.47a6.79,6.79,0,0,1-1,.92l1.76,3a11,11,0,0,0,1.82-1.65Z" style="opacity:0.1"></path><path d="M181.09,168.32l1.93,3.33c.47,0,1,0,1.61,0a6,6,0,0,0,1.44-.06l-.38-1.7-.27-1.73a6.26,6.26,0,0,1-.76,0A23.24,23.24,0,0,0,181.09,168.32Z" style="opacity:0.1"></path><path d="M220.68,153.27s2.18,15.64.77,22.84-5.54,9-8.21,9.73l-4.87,1.28-4.87,1.27c-2.67.7-7.17,1.11-11.92-4.46s-10.52-20.3-10.52-20.3Z" style="fill:#fff"></path><path d="M220.68,153.27q.72,5.13,1.11,10.31a65.4,65.4,0,0,1,.09,10.38,19.79,19.79,0,0,1-1.1,5.09,11.73,11.73,0,0,1-2.78,4.41,10.52,10.52,0,0,1-4.57,2.52l-5,1.32-5,1.33a10.53,10.53,0,0,1-5.23.07,11.78,11.78,0,0,1-4.62-2.48,19,19,0,0,1-3.49-3.9,68.37,68.37,0,0,1-5-9.09q-2.22-4.69-4.14-9.53l-.08-.2.21-.05,19.88-5.13Zm0,0-19.83,5.32-19.74,5.23.13-.26c1.29,3.2,2.69,6.37,4.18,9.48a68.92,68.92,0,0,0,5.05,9,19.25,19.25,0,0,0,3.38,3.82,11.36,11.36,0,0,0,4.43,2.41c3.34,1,6.7-.62,10-1.34,3.27-1,7-1.24,9.45-3.71a11.47,11.47,0,0,0,2.72-4.28,19.05,19.05,0,0,0,1.11-5,46.93,46.93,0,0,0,.19-5.17c0-1.73-.08-3.45-.17-5.18Q221.32,158.41,220.68,153.27Z" style="fill:#263238"></path><path d="M212.9,167.08c-1,.68-.13-.83-.61-1.05-1-.47-2,2-2,2a5.72,5.72,0,0,1-.29,1.12c-.16.49-.38.8-.61.86s-.56-.19-.63-.49a2.75,2.75,0,0,1,.27-1.23c.32-.36-.55,0-.61-.06a.34.34,0,0,1,0-.34,6.32,6.32,0,0,0,.66-.76.43.43,0,0,0-.2-.62.61.61,0,0,0-.65.32,6.41,6.41,0,0,0-.25.87c0,.2-.13.27-.2.29s-.62-.5-.7-.54c-.42-.24-.85,1.28-.69,1.9.22.87,2.11,1.3,2.12,1.34a3.23,3.23,0,0,1-.6.87s-2.38-.13-2.34.86c0,.51.51.73,1,.86l.12-.35a.88.88,0,0,1-.7-.57c-.13-.53,1.73-.42,1.74-.35s-1.26,2.36-.82,4.2a3,3,0,0,0,3.6,2,1.31,1.31,0,0,0,1-1.7,1.08,1.08,0,0,0-1.29-.71c-1.34.23-.74,1.48-.6,1.61s-1.8-.15-1.27-1.08a4.06,4.06,0,0,0,1.08-2.7,1.88,1.88,0,0,0-.8-1.58c0-.06-.14-.11-.13-.23a5.28,5.28,0,0,1,.87-1c.11,0,.15.17.2.34a3.53,3.53,0,0,0,.57,1.6,4.31,4.31,0,0,0,2,.65c.29-.25-.39-.72-.33-.81s.27-.15,1-.21c.58-.07,1.29-.78,1.05-1.09-.09-.12-1.37.18-1.42.12s.09-.56.05-.58-1.33.23-1.74.16-.65-.21-.71-.46.31-.6.85-.84a3.88,3.88,0,0,1,1.4-.33s2.55.34,1.51-1,1-.37,1-1S213.9,166.39,212.9,167.08Zm-4.09,7c-.37,2.27-1.27,1.86-1.39,1.79a6.76,6.76,0,0,1,.82-3.51A2.82,2.82,0,0,1,208.81,174.06Z" style="fill:#BA68C8"></path><path d="M194.4,172c-1,.68-.13-.83-.61-1-1-.47-2,2-2,2a7.59,7.59,0,0,1-.29,1.12c-.16.49-.39.8-.61.86s-.57-.19-.64-.5.28-1.2.27-1.23c.32-.35-.56,0-.61,0a.32.32,0,0,1,0-.34,7.7,7.7,0,0,0,.66-.77.44.44,0,0,0-.21-.62.6.6,0,0,0-.64.33,6.25,6.25,0,0,0-.25.86c0,.21-.14.28-.21.3s-.63-.5-.69-.54c-.43-.24-.86,1.27-.71,1.9.24.86,2.12,1.3,2.13,1.34a3.22,3.22,0,0,1-.59.86s-1.8-.09-2.24.53c.19.37.39.74.59,1.1l.28.1.11-.35c-.35-.11-.64-.29-.7-.57-.12-.54,1.73-.42,1.75-.36a10.28,10.28,0,0,0-.81,2.3c.16.29.33.56.51.84a6.35,6.35,0,0,1,.82-2.82,2.77,2.77,0,0,1,.56,1.71c-.21,1.34-.61,1.75-.94,1.85l.38.6a.69.69,0,0,1,.07-.2,4,4,0,0,0,1.08-2.7,1.89,1.89,0,0,0-.79-1.57c-.06-.06-.15-.11-.15-.23a5.45,5.45,0,0,1,.89-1c.1,0,.15.18.19.34a3.23,3.23,0,0,0,.58,1.61,4.33,4.33,0,0,0,2,.65c.29-.26-.39-.73-.33-.82s.27-.14,1-.2c.57-.07,1.29-.79,1.05-1.09-.1-.12-1.37.18-1.42.12s.1-.57.05-.58-1.33.23-1.74.16-.64-.21-.71-.46.31-.6.85-.85a4.15,4.15,0,0,1,1.41-.33s2.54.35,1.5-1,1-.36,1-1S195.41,171.34,194.4,172Zm-1.42,9.4a1.08,1.08,0,0,0-1.29-.71c-1.33.24-.74,1.49-.6,1.61a1.7,1.7,0,0,1-.87-.2c.26.39.53.75.79,1.08a2.19,2.19,0,0,0,1-.08A1.31,1.31,0,0,0,193,181.44Z" style="fill:#BA68C8"></path><path d="M221.57,169.24s-.35.85-.7,1a.55.55,0,0,1-.8-.12,1.25,1.25,0,0,1,.19-1,6.11,6.11,0,0,1,.63-1s1.13-2.41.09-2.82c-.49-.19-1,1.48-1.17.28s-1-1.67-1.51-1.24,1.69,1.24,0,1.43.31,1.78.31,1.78a4.1,4.1,0,0,1,.74,1.25c.19.55.22,1.06,0,1.19s-.45.08-.82-.19-1-1.37-1.08-1.37-.3.43-.39.44-.75-1.13-.9-1.11c-.39,0-.4,1-.07,1.51.51.61.63.84.58.9s-.83-.06-.8.32a4,4,0,0,0,1.84,1,3.3,3.3,0,0,0,1.55-.69c.16-.08.3-.16.38-.09a5.44,5.44,0,0,1-.13,1.34c-.09.1-.19.06-.27.06a1.89,1.89,0,0,0-1.69.52,4,4,0,0,0-1.2,2.64c-.3,1-1.79-.19-1.66-.17s1.5-.42.75-1.54a1.09,1.09,0,0,0-1.41-.45,1.3,1.3,0,0,0-.55,1.87,3,3,0,0,0,3.91,1.27c1.63-1,2.43-3.49,2.46-3.5s1.43,1.22,1,1.5a.89.89,0,0,1-.89-.11l-.18.32c.41.24.91.45,1.29.12.75-.66-1-2.26-1-2.3a3.41,3.41,0,0,1,.21-1,6.94,6.94,0,0,0,1.69.69c0-.8.05-1.62,0-2.46C221.8,169.27,221.6,168.88,221.57,169.24Zm-4.33,6.39c-.13,0-1-.42.35-2.24a2.66,2.66,0,0,1,1.63-.78A6.79,6.79,0,0,1,217.24,175.63Z" style="fill:#BA68C8"></path><path d="M204.32,174.86a.31.31,0,0,1,.06-.35,5.09,5.09,0,0,0,.46-.78.61.61,0,0,0-.21-.7.44.44,0,0,0-.6.29,7.41,7.41,0,0,0-.09,1,.31.31,0,0,1-.24.22c-.08,0-.43-.87-.47-.39,0,0-.35.85-.7,1a.56.56,0,0,1-.8-.13c-.12-.19,0-.58.2-1a5.45,5.45,0,0,1,.62-1s1.13-2.4.09-2.82c-.5-.19-1,1.49-1.18.29s-1-1.67-1.5-1.25,1.7,1.25,0,1.43.3,1.79.3,1.79a3.87,3.87,0,0,1,.74,1.25c.19.55.21,1.06,0,1.19s-.45.08-.82-.2-1-1.37-1.08-1.36-.29.43-.39.43-.75-1.12-.9-1.1c-.39,0-.4,1-.06,1.5.49.62.62.84.58.9s-.83-.05-.81.33c0,.07,1.29,1,1.84,1a3.3,3.3,0,0,0,1.55-.68c.15-.09.31-.17.39-.1a6,6,0,0,1-.15,1.35c-.09.09-.18.06-.26.06a1.91,1.91,0,0,0-1.69.51,4,4,0,0,0-1.2,2.64c-.31,1-1.79-.18-1.66-.16s1.5-.43.74-1.55a1.07,1.07,0,0,0-1.4-.44,1.31,1.31,0,0,0-.55,1.87,3,3,0,0,0,3.91,1.27c1.62-1,2.43-3.49,2.46-3.51s1.44,1.22,1,1.5a.87.87,0,0,1-.89-.11l-.19.33c.42.24.92.45,1.3.12.75-.67-1-2.27-1-2.3a2.85,2.85,0,0,1,.22-1s1.65,1.05,2.43.61c.56-.32,1.37-1.67.89-1.81C205.11,175,204.4,175,204.32,174.86Zm-5.42,5.68c-.13,0-1.05-.41.35-2.24a2.7,2.7,0,0,1,1.63-.78A6.56,6.56,0,0,1,198.9,180.54Z" style="fill:#BA68C8"></path><path d="M205.87,164.3c-.45.32-.06-.36-.28-.46-.45-.21-.87.91-.87.91a1.94,1.94,0,0,1-.14.5c-.06.21-.16.35-.27.38s-.25-.09-.28-.22.12-.53.12-.55-.25,0-.28,0a.22.22,0,0,1,0-.16,2.72,2.72,0,0,0,.3-.35.18.18,0,0,0-.09-.27.29.29,0,0,0-.29.15,2.6,2.6,0,0,0-.12.39.13.13,0,0,1-.09.13c-.07,0-.27-.23-.31-.25s-.38.58-.31.85.95.6.95.61a1.27,1.27,0,0,1-.26.39s-1.07-.06-1.07.39c0,.22.24.33.45.38l.05-.15a.46.46,0,0,1-.32-.26c0-.25.78-.19.79-.16a3.29,3.29,0,0,0-.37,1.89,1.33,1.33,0,0,0,1.62.87.58.58,0,0,0,.43-.76.47.47,0,0,0-.57-.32.43.43,0,0,0-.27.72s-.81-.06-.58-.48a1.84,1.84,0,0,0,.5-1.21.88.88,0,0,0-.37-.71s-.06-.05-.06-.1a2.78,2.78,0,0,1,.4-.47s.06.09.08.16a1.51,1.51,0,0,0,.26.71,1.76,1.76,0,0,0,.89.29c.14-.11-.17-.31-.15-.36s.13-.07.47-.09.59-.35.48-.49-.62.08-.64,0,0-.25,0-.25-.61.09-.79.07-.28-.1-.31-.2.13-.28.37-.38a1.64,1.64,0,0,1,.64-.15s1.14.14.67-.46.46-.16.46-.45S206.33,164,205.87,164.3ZM204,167.44c-.16,1-.56.84-.61.81a2.88,2.88,0,0,1,.36-1.58A1.19,1.19,0,0,1,204,167.44Z" style="fill:#BA68C8"></path><path d="M186.24,173.15c-.59.1-.33.66-.27.72a.87.87,0,0,1-.46-.13c.09.17.16.33.25.5a1,1,0,0,0,.63,0,.57.57,0,0,0,.43-.75A.47.47,0,0,0,186.24,173.15Zm1.22-3.91c-.45.31-.06-.37-.28-.47-.45-.21-.87.91-.87.91a2.27,2.27,0,0,1-.14.5.54.54,0,0,1-.27.39c-.14,0-.25-.09-.29-.23a1.42,1.42,0,0,1,.13-.55c.14-.16-.25,0-.28,0a.16.16,0,0,1,0-.15c0-.06.25-.26.3-.35a.19.19,0,0,0-.09-.28.3.3,0,0,0-.29.15,2.75,2.75,0,0,0-.12.4.11.11,0,0,1-.09.12c-.07,0-.27-.22-.31-.24-.19-.11-.38.57-.31.85s.94.59.95.6a1.27,1.27,0,0,1-.26.39,2.55,2.55,0,0,0-.85.11.61.61,0,0,1,.05.12,1.72,1.72,0,0,1,.7,0,5.26,5.26,0,0,0-.31.84c.06.14.12.28.19.42a2.57,2.57,0,0,1,.35-1.11,1.16,1.16,0,0,1,.25.76c-.08.54-.24.75-.37.81a2.36,2.36,0,0,0,.12.28l0-.08a1.84,1.84,0,0,0,.5-1.21.88.88,0,0,0-.37-.71.12.12,0,0,1-.06-.1,2.09,2.09,0,0,1,.4-.46s.06.08.08.15a1.54,1.54,0,0,0,.26.72,2,2,0,0,0,.89.29c.14-.11-.17-.32-.15-.37s.13-.06.47-.08.58-.35.47-.49-.61.07-.64,0,.05-.25,0-.26-.6.1-.78.07-.28-.1-.31-.2.13-.28.37-.38a1.84,1.84,0,0,1,.63-.15s1.14.15.68-.46.46-.16.46-.44S187.91,168.93,187.46,169.24Zm-2.85,2.62a.25.25,0,0,1,0,.07l0-.05Z" style="fill:#BA68C8"></path><path d="M199.91,168.36s0-.08,0-.15a2.7,2.7,0,0,0,.21-.35.3.3,0,0,0-.1-.32.19.19,0,0,0-.26.13,2.58,2.58,0,0,0,0,.45.16.16,0,0,1-.1.11s-.2-.4-.22-.18c0,0-.15.38-.31.47a.26.26,0,0,1-.36-.05.56.56,0,0,1,.09-.47,2,2,0,0,1,.28-.44s.5-1.08,0-1.26c-.22-.1-.44.67-.53.12s-.47-.75-.67-.55.76.55,0,.64.14.8.14.8a2.06,2.06,0,0,1,.33.55c.08.25.1.48,0,.54s-.21,0-.38-.08-.44-.62-.48-.62-.13.18-.18.2-.33-.51-.4-.5-.18.46,0,.68.27.37.26.4-.38,0-.37.15.57.46.83.44a1.42,1.42,0,0,0,.69-.31c.07,0,.13-.08.17,0a2,2,0,0,1-.06.61s-.08,0-.12,0a.87.87,0,0,0-.76.23,1.83,1.83,0,0,0-.54,1.19c-.13.46-.8-.09-.74-.07s.67-.2.33-.7a.47.47,0,0,0-.62-.2.58.58,0,0,0-.25.83,1.33,1.33,0,0,0,1.75.58,3.19,3.19,0,0,0,1.1-1.58s.65.55.43.68a.39.39,0,0,1-.39-.06l-.08.16c.19.1.41.2.58.05.33-.31-.44-1-.46-1a1.94,1.94,0,0,1,.11-.46s.73.48,1.1.28.6-.76.39-.81C200.26,168.41,200,168.43,199.91,168.36Zm-2.43,2.55c-.06,0-.47-.17.15-1a1.25,1.25,0,0,1,.74-.36A2.86,2.86,0,0,1,197.48,170.91Z" style="fill:#BA68C8"></path><path d="M217.17,161.27c-.45.32,0-.36-.28-.46-.45-.21-.87.91-.87.91a2.27,2.27,0,0,1-.14.5c-.06.22-.17.36-.27.38s-.25-.08-.28-.22.12-.53.12-.55-.25,0-.28,0a.16.16,0,0,1,0-.15c0-.07.26-.26.29-.35a.19.19,0,0,0-.08-.28.28.28,0,0,0-.29.15,2,2,0,0,0-.11.39.18.18,0,0,1-.09.13c-.08,0-.29-.22-.32-.25-.19-.1-.38.58-.32.86s1,.59,1,.6a1.14,1.14,0,0,1-.27.39s-1.07-.05-1.05.39c0,.22.23.33.44.39l0-.16c-.16,0-.29-.13-.32-.26s.78-.19.79-.16a3.47,3.47,0,0,0-.37,1.89,1.31,1.31,0,0,0,1.62.87.58.58,0,0,0,.44-.76.51.51,0,0,0-.59-.32c-.6.11-.33.67-.27.73s-.8-.07-.56-.49a1.82,1.82,0,0,0,.48-1.21.85.85,0,0,0-.36-.71s-.06,0-.05-.1a2,2,0,0,1,.39-.47s.06.09.08.16a1.54,1.54,0,0,0,.26.72,1.81,1.81,0,0,0,.89.28c.13-.1-.17-.31-.15-.36s.12-.06.48-.08.57-.36.47-.49-.62.07-.64,0,0-.25,0-.25-.59.1-.78.07-.29-.09-.32-.2.14-.28.38-.38a1.64,1.64,0,0,1,.64-.15s1.13.15.67-.46.47-.16.46-.45S217.62,161,217.17,161.27Zm-1.84,3.14c-.16,1-.56.84-.62.82a3,3,0,0,1,.37-1.58A1.22,1.22,0,0,1,215.33,164.41Z" style="fill:#BA68C8"></path><path d="M221,164.07c.07,0,.67-.19.33-.7a.48.48,0,0,0-.63-.19.59.59,0,0,0-.26.83,1.42,1.42,0,0,0,1.31.72l0-.55C221.59,164.57,221,164.06,221,164.07Zm.52-2.06s0,0,.06,0a.3.3,0,0,1,0-.13A.13.13,0,0,0,221.55,162Z" style="fill:#BA68C8"></path><path d="M195.88,182.76l0,.16c.15,0,.29.12.31.24s-.78.19-.78.16a3.42,3.42,0,0,0,.37-1.88,1.34,1.34,0,0,0-1.62-.88.6.6,0,0,0-.44.77.5.5,0,0,0,.58.31c.61-.1.33-.67.27-.72s.81.07.57.49a1.81,1.81,0,0,0-.48,1.2.84.84,0,0,0,.35.71s.07.05.06.11-.35.48-.39.46-.06-.08-.08-.15a1.66,1.66,0,0,0-.26-.72,1.76,1.76,0,0,0-.89-.29c-.13.11.17.33.15.36s-.12.07-.48.09-.58.35-.47.5.61-.08.64-.06-.05.25,0,.27a7.32,7.32,0,0,1,.78-.08c.2,0,.29.09.31.21s-.14.26-.37.38a1.84,1.84,0,0,1-.64.15s-1.14-.16-.67.45a.5.5,0,0,1,.1.16l.36.36c.18-.12.18,0,.16.15l.37.31a2.16,2.16,0,0,0,.57-.86,3.29,3.29,0,0,1,.13-.52.6.6,0,0,1,.27-.38c.16,0,.25.09.29.22a1.21,1.21,0,0,1-.12.55c-.14.17.25,0,.28,0a.18.18,0,0,1,0,.16,2.07,2.07,0,0,0-.3.34.19.19,0,0,0,.09.27.25.25,0,0,0,.29-.14,2.22,2.22,0,0,0,.11-.39c0-.1.06-.12.09-.13s.29.22.32.24c.19.1.38-.57.31-.85s-.95-.58-.95-.6a1.28,1.28,0,0,1,.27-.4s1.07.07,1-.38C196.31,182.91,196.09,182.82,195.88,182.76Zm-.75.43a1.12,1.12,0,0,1-.25-.77c.16-1,.56-.84.62-.81A3.17,3.17,0,0,1,195.13,183.19Z" style="fill:#BA68C8"></path><path d="M214.38,177.8l-.06.16c.16,0,.3.12.32.25s-.78.19-.79.16a3.33,3.33,0,0,0,.38-1.88,1.32,1.32,0,0,0-1.62-.88.59.59,0,0,0-.44.76.48.48,0,0,0,.58.31c.61-.1.33-.66.27-.72s.81.07.57.49a1.82,1.82,0,0,0-.49,1.21.84.84,0,0,0,.36.71.11.11,0,0,1,.06.11s-.35.47-.39.45-.07-.07-.09-.15a1.52,1.52,0,0,0-.25-.72,2,2,0,0,0-.9-.29c-.12.11.18.33.15.37s-.11.06-.47.08-.58.35-.47.5.61-.08.64-.06-.05.25,0,.27a5.66,5.66,0,0,1,.77-.07c.21,0,.3.08.33.2s-.15.27-.39.38a1.74,1.74,0,0,1-.63.15s-1.14-.16-.68.45-.46.17-.45.45.42.41.86.1.06.37.28.47c.45.22.89-.9.89-.9a2.25,2.25,0,0,1,.12-.51c.07-.22.17-.36.27-.39s.26.09.29.23-.13.54-.12.55c-.15.16.25,0,.27,0s0,.09,0,.15a3.62,3.62,0,0,0-.29.34.2.2,0,0,0,.09.28.27.27,0,0,0,.29-.14,1.82,1.82,0,0,0,.11-.4c0-.09.06-.12.1-.13s.28.22.3.24c.2.11.39-.57.32-.85s-.95-.58-.95-.6a1,1,0,0,1,.26-.39s1.08.06,1.06-.39C214.81,178,214.59,177.86,214.38,177.8Zm-.75.43a1.22,1.22,0,0,1-.26-.77c.16-1,.57-.83.62-.81A3,3,0,0,1,213.63,178.23Z" style="fill:#BA68C8"></path><path d="M207.36,178.09a1.35,1.35,0,0,0-1.76-.57,3.41,3.41,0,0,0-1.1,1.57s-.64-.55-.43-.67a.37.37,0,0,1,.4.05l.09-.15c-.19-.11-.42-.2-.59,0-.33.3.44,1,.45,1a1.43,1.43,0,0,1-.1.46s-.74-.47-1.09-.28-.61.76-.4.82c0,0,.35,0,.39.06s0,.08,0,.16a2.16,2.16,0,0,0-.21.35.28.28,0,0,0,.1.31.19.19,0,0,0,.26-.13,3.87,3.87,0,0,0,0-.45c0-.06.05-.1.11-.1s.19.39.2.17c0,0,.16-.37.32-.47a.27.27,0,0,1,.36.06c.06.09,0,.27-.09.47a2.88,2.88,0,0,1-.28.44s-.5,1.08,0,1.26c.23.09.44-.66.53-.13s.46.76.67.56-.76-.56,0-.64-.15-.8-.15-.8a1.75,1.75,0,0,1-.32-.56c-.09-.25-.1-.48,0-.54s.2,0,.37.09a7.27,7.27,0,0,1,.48.62s.13-.19.17-.2.34.5.41.5.18-.47,0-.68-.27-.38-.25-.41.37,0,.37-.14a2,2,0,0,0-.84-.45,1.69,1.69,0,0,0-.69.31c-.07,0-.14.08-.18,0a2.48,2.48,0,0,1,.07-.61s.09,0,.12,0a.86.86,0,0,0,.75-.23,1.83,1.83,0,0,0,.54-1.19c.14-.46.8.08.75.08s-.67.19-.33.69a.49.49,0,0,0,.62.2A.59.59,0,0,0,207.36,178.09Zm-1.86.73a1.29,1.29,0,0,1-.74.34,3,3,0,0,1,.89-1.35C205.71,177.83,206.12,178,205.5,178.82Z" style="fill:#BA68C8"></path><path d="M221.38,174.62c-.25.14-.61.76-.4.81,0,0,.35,0,.39.06a.15.15,0,0,1,0,.17,2.09,2.09,0,0,0-.21.34.3.3,0,0,0,.1.32.17.17,0,0,0,.18,0c0-.06,0-.12,0-.18.09-.48.17-1,.24-1.53A.6.6,0,0,0,221.38,174.62Z" style="fill:#BA68C8"></path><rect x="209.96" y="179.42" width="8.44" height="8.44" style="fill:#BA68C8"></rect><rect x="209.96" y="179.42" width="8.44" height="8.44" style="opacity:0.2"></rect><polygon points="211.69 177.43 216.68 177.43 218.41 179.42 209.96 179.42 211.69 177.43" style="fill:#BA68C8"></polygon><polygon points="211.69 177.43 216.68 177.43 218.41 179.42 209.96 179.42 211.69 177.43" style="opacity:0.30000000000000004"></polygon><circle cx="214.15" cy="178.64" r="0.51" style="fill:#263238"></circle><path d="M209.49,156.2a19.26,19.26,0,0,1,3.38-1.32,3.54,3.54,0,0,1,.93-.13.55.55,0,0,1,.48.26,1.79,1.79,0,0,1,.1.48c.08.6.11,1.21.14,1.81.12,2.42.1,4.83.11,7.25s-.07,4.83-.14,7.24-.18,4.83-.34,7.24q-.06-3.63-.06-7.24l0-7.24,0-7.24c0-.6,0-1.2-.06-1.8a2.37,2.37,0,0,0-.06-.41c0-.06-.15-.12-.28-.13a2.88,2.88,0,0,0-.87.08A20.23,20.23,0,0,0,209.49,156.2Z" style="fill:#263238"></path><path d="M140.36,186c1,18.26-2.45,77.28-16.88,83.17C109.62,274.83,99,261.71,102,242c2.13-14.13,13-37.89,21.61-53.76C130.59,175.36,139.47,169.12,140.36,186Z" style="fill: rgb(119, 68, 66);"></path><path d="M140.36,186c1,18.26-2.45,77.28-16.88,83.17C109.62,274.83,99,261.71,102,242c2.13-14.13,13-37.89,21.61-53.76C130.59,175.36,139.47,169.12,140.36,186Z" style="fill:#BA68C8"></path><path d="M140.5,190.53c.14,3.87.13,7.74.07,11.6s-.25,7.73-.43,11.6-.54,7.72-1,11.56A65.77,65.77,0,0,1,137,236.7c.15-.95.36-1.89.48-2.85s.27-1.91.35-2.87c.23-1.92.4-3.84.54-5.76.29-3.85.57-7.7.76-11.55s.43-7.71.66-11.57S140.23,194.39,140.5,190.53Z" style="fill:#263238"></path><path d="M141.54,193.53a13.44,13.44,0,0,1-.06,3.8,10.79,10.79,0,0,1-.43,1.85,7,7,0,0,1-.82,1.72A62.05,62.05,0,0,0,141.54,193.53Z" style="fill:#263238"></path><path d="M166.68,227.67l5.81,4.55.09.07-.09.08a268.44,268.44,0,0,1-29.26,26.09,95.44,95.44,0,0,1-16.72,10.37,41.14,41.14,0,0,1-4.63,1.81,22.32,22.32,0,0,1-4.95.86,14,14,0,0,1-5-.71,12.24,12.24,0,0,1-4.37-2.61,19.4,19.4,0,0,1-5.1-8.59,35.9,35.9,0,0,1-1.52-9.8,39.18,39.18,0,0,1,1-9.84c.71-3.22,1.67-6.36,2.67-9.47,2.07-6.22,4.43-12.32,7-18.32a193.65,193.65,0,0,1,8.63-17.6,192.7,192.7,0,0,0-8.11,17.81c-2.47,6-4.75,12.16-6.7,18.38s-3.74,12.54-3.46,19a34.54,34.54,0,0,0,1.52,9.49,18.22,18.22,0,0,0,4.81,8.05,11.94,11.94,0,0,0,8.58,3,21.32,21.32,0,0,0,4.67-.79,39.78,39.78,0,0,0,4.5-1.74,94.79,94.79,0,0,0,16.57-10.16c5.26-3.84,10.32-8,15.26-12.23s9.77-8.65,14.46-13.2v.16Z" style="fill:#263238"></path><path d="M118.81,195.52c-.3.87-.64,1.69-.92,2.52-.16.42-.27.84-.41,1.26s-.21.86-.33,1.31a5.2,5.2,0,0,1,.27-2.73A6.55,6.55,0,0,1,118.81,195.52Z" style="fill:#263238"></path><path d="M106.1,254c-3.54,12.31,11.57,18.43,18.84,14.47,17.09-9.3,34.29-29.44,43.92-44.15,3.1-4.74-25.42-28.49-29.49-24C134.49,205.66,113,229.84,106.1,254Z" style="fill: rgb(119, 68, 66);"></path><path d="M187.42,171.29c1.85,4-8.41,7.74-8.41,7.74a8.1,8.1,0,0,1,4.85,2.66c2.1,2.62-1.08,7.06-1.08,7.06a10.07,10.07,0,0,1,4.67,3.63c1.76,2.71-.82,7.64-.82,7.64a8.86,8.86,0,0,1,2.11,5.78c-.27,5.65-8.09,11.28-12.52,14.54-4.73,3.49-11.24,7.69-13.76,10.51l-23.59-29.49s11.08-24.27,19.56-27.15C163.63,172.43,184.59,165.16,187.42,171.29Z" style="fill: rgb(119, 68, 66);"></path><path d="M178.87,179c-5.94.87-11.67,3.16-17.17,5.43-.13.05,0,.24.08.19,5.44-2.32,11.64-3.24,17.17-5.34A.15.15,0,0,0,178.87,179Z" style="fill:#263238"></path><path d="M182.44,188.41a15.71,15.71,0,0,0-3.81,1.49c-1.31.62-2.61,1.26-3.91,1.93-2.58,1.32-5.14,2.71-7.65,4.17-.11.06,0,.25.08.19,2.58-1.32,5.18-2.6,7.81-3.81l4-1.78a18.45,18.45,0,0,0,3.67-1.82A.21.21,0,0,0,182.44,188.41Z" style="fill:#263238"></path><path d="M186.52,200.08a10.71,10.71,0,0,0-3.36,1.52l-3.51,1.87c-2.34,1.23-4.69,2.46-7.08,3.61-.11.06,0,.25.09.19,2.43-1.15,4.87-2.28,7.29-3.45l3.56-1.76a10.42,10.42,0,0,0,3.08-1.87A.07.07,0,0,0,186.52,200.08Z" style="fill:#263238"></path><path d="M134,201.31l38.39,30.81s-34.8,33.84-51,37.78c-15.34,3.71-17.78-10.84-15.89-20C108.08,237.23,134,201.31,134,201.31Z" style="fill:#BA68C8"></path><path d="M107.17,245.92q.66-1.26,1.29-2.55c.84-1.75,1.76-3.47,2.66-5.18,1.84-3.48,3.71-6.93,5.7-10.31,4-6.75,16.26-24.41,17.47-26.23.06-.1-.21-.51-.59-.12-.22.19-8.58,11.35-10.77,14.58a178.5,178.5,0,0,0-12,20.37c-.06.12-.11.23-.16.35-.21.19-.41.39-.61.59a18.51,18.51,0,0,0-1.32,1.61,21,21,0,0,0-2.07,3.56.08.08,0,0,0,.14.08,25.56,25.56,0,0,1,2.38-3.43c.3-.38.58-.76.87-1.15q-1,2.19-2,4.38c-.46,1-.89,2-1.29,3s-.86,2-1.15,3c0,.08.09.11.13.05C106.35,247.73,106.72,246.8,107.17,245.92Z" style="fill:#263238"></path><path d="M143.52,222.83c4.18,3.28,8.34,6.6,12.66,9.73,2.46,1.78,4.91,3.58,7.38,5.33.09.07.24-.08.15-.16-4.06-3.46-8.13-6.93-12.36-10.2S143,221,138.7,217.76c-2.42-1.83-4.89-3.57-7.44-5.25,0,0-.12.05-.07.09C135.11,216.2,139.3,219.52,143.52,222.83Z" style="fill:#263238"></path></g><g id="freepik--Table--inject-106"><rect x="60.09" y="396.14" width="145.5" height="10.15" style="fill:#455a64"></rect><polygon points="94.05 406.29 89.91 415.46 69.7 460.32 64.53 460.32 78.12 415.46 80.89 406.29 94.05 406.29" style="fill:#455a64"></polygon><polygon points="80.89 406.29 94.05 406.29 89.91 415.46 78.12 415.46 80.89 406.29" style="fill:#263238"></polygon><polygon points="201.15 460.32 195.97 460.32 175.76 415.46 171.64 406.29 184.78 406.29 187.56 415.46 201.15 460.32" style="fill:#455a64"></polygon><polygon points="187.56 415.46 175.76 415.46 171.64 406.29 184.78 406.29 187.56 415.46" style="fill:#263238"></polygon></g><g id="freepik--Plate--inject-106"><polygon points="178.44 389.02 172.04 394.7 128.15 394.7 121.75 389.02 178.44 389.02" style="fill:#fff"></polygon><path d="M178.44,389l-6.36,5.72v0h0c-7.31.08-14.63.08-21.94.1l-21.95.07h-.09l-.06-.06-6.41-5.66-.49-.43h.65Zm0,0-56.69.25.16-.43,6.39,5.69-.15-.06,21.95.06c7.31,0,14.63,0,21.94.11h0Z" style="fill:#263238"></path><rect x="128.15" y="394.7" width="43.74" height="1.44" style="fill:#BA68C8"></rect><rect x="128.15" y="394.7" width="43.74" height="1.44" style="fill:#fff"></rect><path d="M171.88,396.14l-43.73.24h-.24v-1.93h.25l43.73.24h0Zm0,0V394.7h0l-43.73.25.25-.25v1.44l-.24-.25Z" style="fill:#263238"></path></g><g id="freepik--Teapot--inject-106"><path d="M62.21,379a11.42,11.42,0,0,0,10.26,6.87,12,12,0,0,0,2.12-.19,14.8,14.8,0,0,0,3.08-.95l-1.81-4.21a9.84,9.84,0,0,1-1.65.57c-5.13,1.25-7.41-3-7.84-4-2-4.33-3.25-14.21.14-17,2.66-2,7.29,2.3,8,2.65a8.44,8.44,0,0,0,1.74.74l.51-2.23.64-2.2c-.2-.07-.51-.23-.9-.42-1.15-.55-7.33-6.48-12-3.55C58.47,358.85,59.7,373.51,62.21,379Z" style="fill:#fff"></path><path d="M62.21,379a12.5,12.5,0,0,0,2.66,3.71,11.22,11.22,0,0,0,3.86,2.43,10.72,10.72,0,0,0,4.49.63,13.61,13.61,0,0,0,4.39-1.18l-.08.2-1.87-4.18.29.11a8,8,0,0,1-5,.71,7,7,0,0,1-4.18-3,10.08,10.08,0,0,1-1.18-2.31,20.67,20.67,0,0,1-.75-2.43,30.34,30.34,0,0,1-.8-5,20,20,0,0,1,.22-5.11,8.88,8.88,0,0,1,.84-2.5,4.83,4.83,0,0,1,.81-1.12,3,3,0,0,1,1.25-.79,4.45,4.45,0,0,1,2.76.17,12.09,12.09,0,0,1,2.33,1.17c.72.46,1.41,1,2.07,1.47a5.05,5.05,0,0,0,.45.32l.55.27a5.44,5.44,0,0,0,1.07.43l-.53.33.52-2.24.67-2.2.24.49c-.39-.2-.75-.34-1.17-.6s-.69-.5-1-.75c-.66-.5-1.32-1-2-1.43a13.16,13.16,0,0,0-4.41-2,5.26,5.26,0,0,0-4.5.95,8.9,8.9,0,0,0-2.7,4,24.71,24.71,0,0,0-1.2,9.75,37,37,0,0,0,.57,4.93A22,22,0,0,0,62.21,379Zm0,0a21.89,21.89,0,0,1-1.44-4.75,37.32,37.32,0,0,1-.62-4.93,33,33,0,0,1,.06-5,20.5,20.5,0,0,1,1-4.89,9.3,9.3,0,0,1,2.7-4.2,5.53,5.53,0,0,1,2.3-1.14,6.73,6.73,0,0,1,2.57,0A14.2,14.2,0,0,1,73.42,356c.71.44,1.4.92,2.08,1.4.33.24.67.49,1,.7s.71.33,1.05.49l.34.17-.09.33-.62,2.18-.49,2.22-.09.43-.43-.09a6.33,6.33,0,0,1-1.27-.48l-.56-.28a4,4,0,0,1-.59-.39c-.67-.5-1.33-1-2-1.41a11,11,0,0,0-2.15-1.05,3.42,3.42,0,0,0-2.15-.14,2.89,2.89,0,0,0-1.49,1.44,7.88,7.88,0,0,0-.76,2.22,18.79,18.79,0,0,0-.26,4.86,28.73,28.73,0,0,0,.72,4.88,15.15,15.15,0,0,0,1.7,4.53,6.38,6.38,0,0,0,3.72,2.81,7.5,7.5,0,0,0,4.72-.54l.21-.09.08.2,1.75,4.24.06.14-.14.06a13.7,13.7,0,0,1-4.5,1.06,11,11,0,0,1-4.54-.69,11.29,11.29,0,0,1-3.86-2.49A12.68,12.68,0,0,1,62.21,379Z" style="fill:#263238"></path><path d="M125.34,383.92c3,0,8.71-2.29,10.24-4.95s7.25-20.33,8.37-21.63,4.84-2.51,4.84-2.51l-1.3-2.56a20.53,20.53,0,0,0-7.67,2.89c-3.18,2.24-7.16,11.14-8.88,11.14h-5.6Z" style="fill:#fff"></path><path d="M125.34,383.92a14.78,14.78,0,0,0,4.85-1.25,14.12,14.12,0,0,0,4.22-2.62,5.25,5.25,0,0,0,1.35-2c.33-.77.62-1.56.92-2.34.58-1.58,1.13-3.17,1.69-4.76,1.1-3.18,2.17-6.38,3.35-9.54.29-.79.59-1.58.91-2.37.16-.4.33-.79.51-1.18a5.14,5.14,0,0,1,.32-.61,2.4,2.4,0,0,1,.51-.57,16.08,16.08,0,0,1,4.68-2.31l-.29.68-1.31-2.55.51.26a20.81,20.81,0,0,0-6.49,2.18,8.21,8.21,0,0,0-1.39.93,11.18,11.18,0,0,0-1.17,1.21c-.74.89-1.4,1.84-2.06,2.81l-1.93,3a24.85,24.85,0,0,1-2.11,2.9,4.46,4.46,0,0,1-.71.65,1.75,1.75,0,0,1-.53.26,2.57,2.57,0,0,1-.53,0l-1.77,0-3.53,0,.32-.32C125.6,372.09,125.44,377.93,125.34,383.92Zm0,0c-.1-5.76-.26-11.67-.32-17.62V366h.32l3.53,0,1.77,0c.37,0,.37,0,.6-.15a3.75,3.75,0,0,0,.57-.56c1.42-1.76,2.59-3.85,3.9-5.81a34.28,34.28,0,0,1,2.09-2.9,12.2,12.2,0,0,1,1.26-1.34,10.23,10.23,0,0,1,1.54-1.05,20.89,20.89,0,0,1,6.82-2.33l.35-.06.16.33,1.29,2.56.25.49-.53.19a15.49,15.49,0,0,0-4.37,2.09,1.85,1.85,0,0,0-.34.36,4.73,4.73,0,0,0-.27.51c-.17.36-.34.74-.49,1.13q-.48,1.15-.93,2.34L139,371.19c-.59,1.57-1.19,3.15-1.82,4.72-.31.78-.63,1.57-1,2.34a5.84,5.84,0,0,1-1.52,2.1,14.61,14.61,0,0,1-4.41,2.53A14.32,14.32,0,0,1,125.34,383.92Z" style="fill:#263238"></path><path d="M130.7,371.91c0,17.48-16.39,21.76-16.39,21.76v2.47H89.7v-2.47s-16.39-4.28-16.39-21.76c0-17,15.59-23.5,15.59-23.5l-1.31-2.69h28.83l-1.31,2.69S130.7,354.94,130.7,371.91Z" style="fill:#fff"></path><path d="M130.7,371.91a24.21,24.21,0,0,1-1,7.22,20.61,20.61,0,0,1-3.37,6.47,23.29,23.29,0,0,1-5.36,5,25.62,25.62,0,0,1-6.59,3.2l.08-.11,0,2.47v.12h-.13l-24.61.19h-.32v-.32l0-2.47.25.33a24.5,24.5,0,0,1-12.27-8.26,21.06,21.06,0,0,1-3.46-6.66,24.66,24.66,0,0,1-1-7.43A25,25,0,0,1,74,364.23a24.38,24.38,0,0,1,3.33-6.72A29.3,29.3,0,0,1,88.74,348l-.22.58-1.29-2.7-.29-.59h.65l28.83.27h.23l-.1.2-1.33,2.68-.06-.15a29.36,29.36,0,0,1,6.25,4.05,28.24,28.24,0,0,1,5,5.5,24.37,24.37,0,0,1,3.22,6.7A25.75,25.75,0,0,1,130.7,371.91Zm0,0a25.68,25.68,0,0,0-1.09-7.34,24.36,24.36,0,0,0-3.25-6.66,27.68,27.68,0,0,0-5-5.44,27.37,27.37,0,0,0-6.25-4l-.11,0,.05-.11,1.28-2.7.13.21-28.83.26.37-.59,1.33,2.69.19.38-.41.2a28.36,28.36,0,0,0-11,9.24,24.12,24.12,0,0,0-4.28,13.61,23.64,23.64,0,0,0,1,7.15,20.42,20.42,0,0,0,3.27,6.4,24.27,24.27,0,0,0,11.76,8.13l.25.08v.25l0,2.47-.32-.33,24.61.2-.12.13,0-2.47v-.08l.08,0a24,24,0,0,0,6.57-3.1,23,23,0,0,0,5.36-4.91,20.91,20.91,0,0,0,3.4-6.43A24.46,24.46,0,0,0,130.7,371.91Z" style="fill:#263238"></path><path d="M92.61,366.44c-1.45.48.12-1-.38-1.47-1.06-.91-3,1.75-3,1.75a8.21,8.21,0,0,1-.73,1.26c-.35.53-.74.82-1,.82s-.6-.42-.58-.81.74-1.35.74-1.39c.51-.31-.66-.18-.71-.27a.42.42,0,0,1,.11-.41,8.19,8.19,0,0,0,1-.69.54.54,0,0,0,0-.82.76.76,0,0,0-.89.18,8.22,8.22,0,0,0-.6,1c-.11.23-.24.28-.34.28s-.57-.81-.65-.89C85.08,364.5,84,366.18,84,367c0,1.11,2.09,2.29,2.09,2.34a4.62,4.62,0,0,1-1,.83s-2.82-1-3.12.24c-.16.61.37,1,.88,1.36l.25-.38a1.15,1.15,0,0,1-.65-.93c0-.68,2.23.09,2.23.17s-2.32,2.42-2.43,4.78c-.12,2.2,2.23,3.67,3.66,3.58a1.64,1.64,0,0,0,1.75-1.71,1.35,1.35,0,0,0-1.3-1.3c-1.69-.17-1.4,1.54-1.27,1.73S83,376.9,84,376a5,5,0,0,0,2.21-2.87,2.38,2.38,0,0,0-.41-2.17c-.05-.09-.14-.17-.09-.33a7.61,7.61,0,0,1,1.4-.94c.13.06.12.27.12.48a4.51,4.51,0,0,0,.14,2.13,5.52,5.52,0,0,0,2.17,1.46c.44-.21-.22-1-.13-1.09s.38-.09,1.34.1c.72.11,1.82-.49,1.65-1-.08-.17-1.72-.24-1.76-.34s.31-.64.26-.68-1.67-.17-2.14-.39-.71-.48-.71-.8.58-.62,1.32-.73a5,5,0,0,1,1.79.09s3,1.28,2.16-.7,1.38-.09,1.58-.86S94.05,366,92.61,366.44Zm-7.31,7c-1.21,2.61-2.15,1.81-2.27,1.7a8.24,8.24,0,0,1,2.19-3.94A3.53,3.53,0,0,1,85.3,373.42Z" style="fill:#BA68C8"></path><path d="M79.64,372.86a.39.39,0,0,1,.2-.4,7.64,7.64,0,0,0,.81-.77.8.8,0,0,0,0-.93.56.56,0,0,0-.82.15,8.79,8.79,0,0,0-.45,1.18.41.41,0,0,1-.37.18c-.1,0-.21-1.2-.43-.63,0,0-.71.9-1.2,1a.69.69,0,0,1-.91-.42c-.08-.27.15-.71.59-1.17a6.78,6.78,0,0,1,1.07-1s2.19-2.51,1.08-3.36c-.53-.39-1.68,1.45-1.51-.07s-.67-2.36-1.38-2,1.61,2.07-.5,1.71-.25,2.25-.25,2.25a4.6,4.6,0,0,1,.46,1.76c0,.72-.11,1.34-.45,1.42s-.56-.07-.91-.52-.73-2-.84-2-.24.17-.41.29c0,.05,0,.1,0,.15,0,.32-.05.65-.06,1v.05c0,.38,0,.77,0,1.16,0,.2,0,.39,0,.57s0,.38,0,.57a4.12,4.12,0,0,0,1.86-.31c.21-.05.42-.1.5,0a8.21,8.21,0,0,1-.63,1.56.36.36,0,0,1-.34,0,2.26,2.26,0,0,0-1.34-.23c0,.28,0,.54.09.8a2.59,2.59,0,0,1,1.12,0,5.45,5.45,0,0,1-.95,1.21,7.17,7.17,0,0,0,.16.83,14.18,14.18,0,0,0,1.43-1.66c.08,0,1.31,2,.63,2.13a1.07,1.07,0,0,1-1-.44l-.33.34c.41.43,1,.84,1.51.58,1.13-.54-.4-3.05-.41-3.1a3.69,3.69,0,0,1,.61-1.17s1.63,1.83,2.72,1.56c.77-.18,2.21-1.53,1.69-1.87C80.55,373.26,79.69,373.05,79.64,372.86Z" style="fill:#BA68C8"></path><path d="M116.61,366.44c-1.44.48.13-1-.37-1.47-1.07-.91-3,1.75-3,1.75a7.46,7.46,0,0,1-.73,1.26c-.36.53-.75.82-1,.82s-.61-.42-.59-.81.74-1.35.74-1.39c.51-.31-.66-.18-.7-.27a.44.44,0,0,1,.1-.41,7.55,7.55,0,0,0,1-.69.53.53,0,0,0,0-.82.76.76,0,0,0-.89.18,7.06,7.06,0,0,0-.6,1c-.1.23-.24.28-.35.28s-.57-.81-.65-.89c-.43-.43-1.46,1.25-1.47,2.05,0,1.11,2.08,2.29,2.08,2.34a4.19,4.19,0,0,1-1,.83s-2.82-1-3.11.24c-.16.61.37,1,.88,1.36l.26-.38a1.11,1.11,0,0,1-.65-.93c0-.68,2.22.09,2.22.17s-2.33,2.42-2.44,4.78a3.72,3.72,0,0,0,3.67,3.58,1.64,1.64,0,0,0,1.75-1.71,1.34,1.34,0,0,0-1.3-1.3c-1.68-.17-1.4,1.54-1.28,1.73S107,376.9,108,376a5,5,0,0,0,2.22-2.87,2.35,2.35,0,0,0-.42-2.17.36.36,0,0,1-.08-.33,7.29,7.29,0,0,1,1.4-.94c.13.06.13.27.12.48a4.27,4.27,0,0,0,.14,2.13c.28.61,2.06,1.46,2.17,1.46.43-.21-.23-1-.12-1.09s.37-.09,1.33.1c.73.11,1.82-.49,1.64-1-.08-.17-1.71-.24-1.76-.34s.31-.64.26-.68-1.67-.17-2.14-.39-.71-.48-.71-.8.6-.62,1.32-.73a5,5,0,0,1,1.8.09s3,1.28,2.16-.7,1.37-.09,1.57-.86S118.06,366,116.61,366.44Zm-7.29,7c-1.23,2.61-2.16,1.81-2.28,1.7a8.19,8.19,0,0,1,2.18-3.94A3.48,3.48,0,0,1,109.32,373.42Z" style="fill:#BA68C8"></path><path d="M103.65,372.86a.39.39,0,0,1,.19-.4,6.78,6.78,0,0,0,.81-.77.8.8,0,0,0,0-.93.55.55,0,0,0-.81.15c-.16.22-.36,1-.46,1.18a.39.39,0,0,1-.36.18c-.1,0-.22-1.2-.43-.63,0,0-.71.9-1.2,1a.7.7,0,0,1-.92-.42c-.07-.27.15-.71.59-1.17a6.45,6.45,0,0,1,1.08-1s2.18-2.51,1.07-3.36c-.53-.39-1.68,1.45-1.51-.07s-.66-2.36-1.38-2,1.62,2.07-.5,1.71-.24,2.25-.24,2.25a5,5,0,0,1,.46,1.76c0,.72-.12,1.34-.45,1.42s-.56-.07-.92-.52a21,21,0,0,1-.82-2c-.06,0-.5.41-.62.39s-.52-1.6-.71-1.63c-.48-.09-.84,1.11-.58,1.78.38.91.45,1.23.38,1.28s-1-.35-1.08.12c0,.09,1.2,1.67,1.87,1.81a4.38,4.38,0,0,0,2.1-.29c.22-.05.43-.1.51,0a8.24,8.24,0,0,1-.64,1.56c-.14.08-.24,0-.34,0a2.37,2.37,0,0,0-2.21.05,5,5,0,0,0-2.34,2.76c-.72,1.12-2.09-.84-1.94-.77s2,0,1.42-1.6a1.32,1.32,0,0,0-1.53-1,1.64,1.64,0,0,0-1.31,2c.21,1.42,2.14,3.42,4.27,2.86,2.29-.6,4.11-3.35,4.17-3.37s1.3,2,.63,2.13a1.08,1.08,0,0,1-1-.44l-.33.34c.42.43,1,.84,1.52.58,1.13-.54-.41-3.05-.42-3.1a3.92,3.92,0,0,1,.62-1.17s1.62,1.83,2.71,1.56c.78-.18,2.21-1.53,1.69-1.87C104.56,373.26,103.69,373.05,103.65,372.86Zm-8.46,5c-.14-.1-1.11-.85,1.19-2.56a3.31,3.31,0,0,1,2.23-.38A8.15,8.15,0,0,1,95.19,377.83Z" style="fill:#BA68C8"></path><path d="M130.27,375.39a2.62,2.62,0,0,0,.08.8c.06-.36.11-.72.16-1.08,0-.05,0-.09,0-.12,0-.38.07-.77.1-1.15A4.93,4.93,0,0,0,130.27,375.39Zm.42-4.4a.81.81,0,0,1-.2-.55.25.25,0,0,1,.16-.21,2.56,2.56,0,0,0,0-.39.77.77,0,0,0-.62.55c-.14.53.26.94.71,1.24C130.71,371.41,130.7,371.2,130.69,371Z" style="fill:#BA68C8"></path><path d="M127.66,372.86c0-.09,0-.25.19-.4a8.75,8.75,0,0,0,.81-.77.8.8,0,0,0,0-.93.55.55,0,0,0-.81.15,8.91,8.91,0,0,0-.46,1.18.42.42,0,0,1-.37.18c-.09,0-.22-1.2-.42-.63,0,0-.72.9-1.21,1a.71.71,0,0,1-.92-.42c-.06-.27.15-.71.59-1.17a7,7,0,0,1,1.09-1s2.18-2.51,1.07-3.36c-.53-.39-1.69,1.45-1.51-.07s-.66-2.36-1.38-2,1.62,2.07-.51,1.71-.24,2.25-.24,2.25a4.6,4.6,0,0,1,.46,1.76c0,.72-.1,1.34-.44,1.42s-.57-.07-.92-.52a21.62,21.62,0,0,1-.83-2s-.5.41-.62.39-.51-1.6-.7-1.63c-.49-.09-.84,1.11-.59,1.78.39.91.46,1.23.4,1.28s-1-.35-1.09.12c0,.09,1.2,1.67,1.87,1.81a4.38,4.38,0,0,0,2.1-.29c.21-.05.43-.1.5,0a7.11,7.11,0,0,1-.64,1.56c-.14.08-.23,0-.34,0a2.37,2.37,0,0,0-2.21.05,5.06,5.06,0,0,0-2.34,2.76c-.71,1.12-2.09-.84-1.93-.77s1.94,0,1.42-1.6a1.33,1.33,0,0,0-1.54-1,1.62,1.62,0,0,0-1.29,2c.19,1.42,2.13,3.42,4.25,2.86,2.29-.6,4.12-3.35,4.17-3.37s1.31,2,.63,2.13a1.09,1.09,0,0,1-1-.44l-.32.34c.42.43,1,.84,1.51.58,1.14-.54-.4-3.05-.41-3.1a3.51,3.51,0,0,1,.62-1.17s1.61,1.83,2.7,1.56c.78-.18,2.21-1.53,1.7-1.87C128.56,373.26,127.71,373.05,127.66,372.86Zm-8.46,5c-.13-.1-1.11-.85,1.18-2.56a3.31,3.31,0,0,1,2.23-.38A8.14,8.14,0,0,1,119.2,377.83Z" style="fill:#BA68C8"></path><path d="M85.27,358.18c-.75.25.06-.52-.2-.75-.54-.46-1.55.9-1.55.9a3.09,3.09,0,0,1-.38.63c-.18.28-.37.43-.53.43a.37.37,0,0,1-.3-.42c0-.25.39-.68.39-.7.25-.17-.34-.09-.37-.14a.23.23,0,0,1,.06-.21,3.61,3.61,0,0,0,.54-.36.26.26,0,0,0,0-.41.39.39,0,0,0-.45.08,4.58,4.58,0,0,0-.31.49c-.05.13-.12.14-.17.14s-.3-.41-.33-.45c-.22-.21-.76.63-.76,1,0,.57,1.07,1.16,1.07,1.19a2,2,0,0,1-.52.42s-1.44-.49-1.59.13c-.07.31.19.52.45.69l.13-.2a.57.57,0,0,1-.33-.47c0-.34,1.13,0,1.13.09A4.84,4.84,0,0,0,80,362.74a1.9,1.9,0,0,0,1.87,1.83.85.85,0,0,0,.9-.88.69.69,0,0,0-.67-.65c-.86-.09-.72.78-.65.88s-1.07-.4-.58-.88A2.62,2.62,0,0,0,82,361.57a1.18,1.18,0,0,0-.21-1.1c0-.05-.07-.09,0-.17a3.35,3.35,0,0,1,.72-.48c.06,0,0,.13,0,.24a2.3,2.3,0,0,0,.08,1.09c.14.32,1,.74,1.1.74.22-.1-.12-.51-.06-.56s.19,0,.68.06.93-.25.83-.48-.87-.13-.89-.18.15-.33.13-.35-.85-.08-1.09-.19-.36-.25-.35-.42.29-.31.66-.36a2.44,2.44,0,0,1,.91,0s1.51.65,1.1-.35.71-.05.81-.45S86,357.93,85.27,358.18Zm-3.73,3.57c-.62,1.32-1.1.91-1.15.85a4.06,4.06,0,0,1,1.11-2A1.81,1.81,0,0,1,81.54,361.75Z" style="fill:#BA68C8"></path><path d="M78.66,361.46a.2.2,0,0,1,.09-.21,2.23,2.23,0,0,0,.41-.4.36.36,0,0,0,0-.46.27.27,0,0,0-.41.07,5.16,5.16,0,0,0-.23.6.24.24,0,0,1-.19.1s-.12-.62-.22-.32c0,0-.37.45-.61.51a.36.36,0,0,1-.47-.21c0-.14.08-.37.3-.61a3.86,3.86,0,0,1,.55-.48s1.12-1.28.55-1.72c-.27-.2-.85.74-.77,0a1.37,1.37,0,0,0,0-.46,16.37,16.37,0,0,0-1,1.58,2.46,2.46,0,0,1,.16.77c0,.36,0,.68-.22.72s-.28,0-.46-.26l-.09-.15h0c-.16.33-.32.64-.48,1l0,.06a2,2,0,0,0,.87-.17c.1,0,.22-.05.25,0a3.71,3.71,0,0,1-.32.8c-.07.05-.12,0-.17,0a1.21,1.21,0,0,0-.88-.08c-.07.17-.14.34-.2.51a1.64,1.64,0,0,1,1-.13,4.35,4.35,0,0,1-1.49,1.39c-.06.15-.11.31-.16.47a5,5,0,0,0,2-1.66s.66,1,.32,1.08a.57.57,0,0,1-.53-.23l-.17.17c.22.23.48.44.77.3.58-.27-.2-1.55-.2-1.58a1.83,1.83,0,0,1,.31-.59s.82.93,1.38.8c.39-.1,1.13-.79.86-1C79.12,361.65,78.68,361.55,78.66,361.46Z" style="fill:#BA68C8"></path><path d="M124.78,361.46a.2.2,0,0,1,.11-.21,3.12,3.12,0,0,0,.41-.4.39.39,0,0,0,0-.46.27.27,0,0,0-.41.07,5.35,5.35,0,0,0-.24.6.2.2,0,0,1-.18.1s-.11-.62-.22-.32c0,0-.36.45-.61.51a.36.36,0,0,1-.47-.21c0-.14.08-.37.31-.61a3.74,3.74,0,0,1,.54-.48s1.11-1.28.55-1.72c-.28-.2-.86.74-.77,0s-.34-1.21-.71-1,.83,1.05-.25.88-.13,1.14-.13,1.14a2.33,2.33,0,0,1,.24.9c0,.36-.06.68-.23.72s-.29,0-.47-.26-.37-1-.42-1-.24.2-.32.2-.25-.82-.35-.84c-.25,0-.43.58-.3.92s.23.62.2.65-.5-.18-.56.06c0,.05.62.86,1,.92a2.08,2.08,0,0,0,1.08-.15c.11,0,.21-.05.25,0a3.71,3.71,0,0,1-.32.8c-.07.05-.12,0-.17,0a1.22,1.22,0,0,0-1.13,0,2.56,2.56,0,0,0-1.19,1.41c-.37.57-1.06-.42-1-.39s1,0,.73-.81a.68.68,0,0,0-.78-.52.82.82,0,0,0-.67,1,1.88,1.88,0,0,0,2.17,1.46,4.72,4.72,0,0,0,2.12-1.71s.67,1,.32,1.08c-.17.05-.35-.06-.52-.23l-.17.17c.21.23.49.44.78.3.57-.27-.21-1.55-.22-1.58a1.83,1.83,0,0,1,.31-.59s.83.93,1.39.8c.4-.1,1.12-.79.86-1C125.24,361.65,124.81,361.55,124.78,361.46Zm-4.3,2.53c-.08-.05-.57-.44.6-1.31a1.66,1.66,0,0,1,1.14-.19A4.21,4.21,0,0,1,120.48,364Z" style="fill:#BA68C8"></path><path d="M109.2,358.18c-.73.25.07-.52-.18-.75-.55-.46-1.57.9-1.57.9a3.08,3.08,0,0,1-.36.63c-.19.28-.38.43-.54.43s-.3-.22-.29-.42.38-.68.38-.7c.25-.17-.34-.09-.36-.14a.2.2,0,0,1,0-.21,2.76,2.76,0,0,0,.53-.36.26.26,0,0,0,0-.41.38.38,0,0,0-.45.08c-.08.1-.23.36-.31.49s-.12.14-.17.14-.3-.41-.34-.45c-.21-.21-.74.63-.75,1,0,.57,1.06,1.16,1.06,1.19a2.12,2.12,0,0,1-.51.42s-1.43-.49-1.58.13c-.09.31.19.52.44.69l.13-.2a.56.56,0,0,1-.33-.47c0-.34,1.13,0,1.13.09a4.84,4.84,0,0,0-1.24,2.43,1.9,1.9,0,0,0,1.87,1.83.83.83,0,0,0,.89-.88A.67.67,0,0,0,106,363c-.86-.09-.71.78-.65.88s-1.07-.4-.59-.88a2.56,2.56,0,0,0,1.13-1.47,1.23,1.23,0,0,0-.2-1.1c0-.05-.08-.09,0-.17a3.85,3.85,0,0,1,.71-.48c.07,0,.07.13.07.24a2.16,2.16,0,0,0,.06,1.09c.15.32,1.06.74,1.11.74.22-.1-.11-.51-.06-.56s.19,0,.67.06.94-.25.84-.48-.86-.13-.89-.18.16-.33.13-.35-.85-.08-1.09-.19-.36-.25-.36-.42.3-.31.67-.36a2.52,2.52,0,0,1,.92,0s1.51.65,1.1-.35.7-.05.8-.45S109.94,357.93,109.2,358.18Zm-3.72,3.57c-.61,1.32-1.09.91-1.16.85a4.24,4.24,0,0,1,1.11-2A1.72,1.72,0,0,1,105.48,361.75Z" style="fill:#BA68C8"></path><path d="M101.4,361.46a.21.21,0,0,1,.1-.21,2.69,2.69,0,0,0,.42-.4.41.41,0,0,0,0-.46.28.28,0,0,0-.42.07c-.08.11-.18.52-.23.6a.21.21,0,0,1-.19.1s-.1-.62-.22-.32c0,0-.35.45-.61.51a.37.37,0,0,1-.47-.21.85.85,0,0,1,.3-.61,3.48,3.48,0,0,1,.56-.48s1.11-1.28.54-1.72c-.27-.2-.85.74-.77,0s-.34-1.21-.7-1,.83,1.05-.26.88-.12,1.14-.12,1.14a2.52,2.52,0,0,1,.24.9c0,.36-.06.68-.23.72s-.29,0-.47-.26-.37-1-.42-1-.25.2-.32.2-.26-.82-.36-.84-.42.58-.3.92.24.62.21.65-.51-.18-.56.06c0,.05.61.86,1,.92a2,2,0,0,0,1.07-.15c.12,0,.22-.05.26,0a3.71,3.71,0,0,1-.32.8c-.08.05-.12,0-.18,0a1.2,1.2,0,0,0-1.12,0,2.52,2.52,0,0,0-1.19,1.41c-.37.57-1.07-.42-1-.39s1,0,.72-.81a.67.67,0,0,0-.78-.52.82.82,0,0,0-.66,1A1.88,1.88,0,0,0,97,364.4a4.85,4.85,0,0,0,2.12-1.71s.67,1,.32,1.08a.55.55,0,0,1-.52-.23l-.17.17c.21.23.48.44.77.3.58-.27-.2-1.55-.21-1.58a1.83,1.83,0,0,1,.31-.59s.83.93,1.38.8,1.13-.79.87-1C101.86,361.65,101.43,361.55,101.4,361.46ZM97.09,364c-.07-.05-.57-.44.61-1.31a1.63,1.63,0,0,1,1.13-.19A4.15,4.15,0,0,1,97.09,364Z" style="fill:#BA68C8"></path><path d="M90.89,381l-.13.2a.59.59,0,0,1,.33.47c0,.35-1.14,0-1.13-.08a4.91,4.91,0,0,0,1.23-2.44,1.88,1.88,0,0,0-1.86-1.82.84.84,0,0,0-.9.87.69.69,0,0,0,.66.66c.87.09.72-.78.66-.88s1.06.4.58.88a2.55,2.55,0,0,0-1.12,1.47,1.18,1.18,0,0,0,.2,1.1.16.16,0,0,1,0,.17,3.57,3.57,0,0,1-.72.47c-.06,0-.06-.13-.06-.24a2.14,2.14,0,0,0-.07-1.08c-.14-.31-1-.74-1.11-.74-.22.1.12.5.07.55s-.2.05-.69-.06-.92.26-.82.49.86.13.89.17-.16.33-.13.35.84.09,1.09.21.36.23.36.4-.31.31-.67.37a2.28,2.28,0,0,1-.92-.05s-1.51-.65-1.1.37-.7,0-.8.43.41.72,1.14.47-.06.53.19.75c.55.47,1.56-.89,1.56-.89a5.41,5.41,0,0,1,.37-.64c.19-.27.38-.42.53-.41s.31.2.3.4-.38.7-.38.72c-.25.16.34.09.36.13a.2.2,0,0,1,0,.21,3.23,3.23,0,0,0-.53.35.27.27,0,0,0,0,.42.4.4,0,0,0,.46-.09,4.18,4.18,0,0,0,.31-.49c0-.11.12-.14.17-.14s.3.41.33.45c.22.22.75-.63.76-1,0-.58-1.07-1.18-1.07-1.2a2.21,2.21,0,0,1,.52-.43s1.43.5,1.58-.12C91.41,381.39,91.14,381.17,90.89,381Zm-1.2.3a1.8,1.8,0,0,1,0-1.14c.61-1.34,1.09-.92,1.15-.87A4.21,4.21,0,0,1,89.69,381.3Z" style="fill:#BA68C8"></path><path d="M103.78,377.5a4.65,4.65,0,0,0-2.12,1.72s-.66-1-.33-1.09a.55.55,0,0,1,.53.22l.17-.17c-.21-.22-.48-.43-.77-.3-.57.28.21,1.56.22,1.58a2.24,2.24,0,0,1-.32.6s-.83-.93-1.39-.8c-.39.1-1.12.78-.86.95,0,0,.49.13.51.23a.19.19,0,0,1-.1.21,2.58,2.58,0,0,0-.41.39.39.39,0,0,0,0,.47.28.28,0,0,0,.42-.07,4.66,4.66,0,0,0,.23-.61.26.26,0,0,1,.19-.09s.11.62.21.33c0,0,.37-.46.61-.53s.42,0,.47.23-.07.35-.3.59a3.72,3.72,0,0,1-.54.49s-1.12,1.28-.56,1.71c.27.21.87-.73.77,0s.34,1.19.71,1-.83-1.05.25-.87.13-1.14.13-1.14a2.43,2.43,0,0,1-.23-.9c0-.37,0-.69.22-.72s.29,0,.47.26.37,1,.43,1,.24-.2.31-.19.26.81.35.83c.25,0,.44-.56.31-.91s-.24-.62-.2-.65.5.18.55-.06c0,0-.61-.85-1-.93a2.3,2.3,0,0,0-1.07.15c-.1,0-.21.05-.25,0a3.74,3.74,0,0,1,.33-.8c.06,0,.12,0,.17,0a1.26,1.26,0,0,0,1.12,0,2.62,2.62,0,0,0,1.2-1.41c.37-.58,1.06.42,1,.39s-1,0-.73.82a.68.68,0,0,0,.78.51A.85.85,0,0,0,106,379,1.9,1.9,0,0,0,103.78,377.5Zm-.66,1.72a1.61,1.61,0,0,1-1.13.18,4.11,4.11,0,0,1,1.74-1.49C103.8,378,104.3,378.34,103.12,379.22Z" style="fill:#BA68C8"></path><path d="M127.78,377.5a4.6,4.6,0,0,0-2.11,1.72s-.67-1-.33-1.09a.54.54,0,0,1,.52.22l.17-.17c-.2-.22-.48-.43-.77-.3-.57.28.21,1.56.22,1.58a1.79,1.79,0,0,1-.32.6s-.83-.93-1.38-.8-1.13.78-.87.95c0,0,.49.13.51.23s0,.13-.1.21a3.1,3.1,0,0,0-.41.39.4.4,0,0,0,0,.47.28.28,0,0,0,.42-.07,4.66,4.66,0,0,0,.23-.61.28.28,0,0,1,.19-.09s.11.62.21.33c0,0,.37-.46.62-.53a.37.37,0,0,1,.47.23c0,.13-.08.35-.31.59a3.26,3.26,0,0,1-.54.49s-1.12,1.28-.56,1.71c.28.21.87-.73.78,0s.33,1.19.7,1-.83-1.05.25-.87.14-1.14.14-1.14a2.25,2.25,0,0,1-.24-.9c0-.37.06-.69.23-.72s.28,0,.47.26.36,1,.42,1,.24-.2.31-.19.26.81.36.83.43-.56.3-.91-.24-.62-.2-.65.5.18.56-.06c0,0-.62-.85-1-.93a2.35,2.35,0,0,0-1.08.15c-.1,0-.21.05-.25,0a3.74,3.74,0,0,1,.33-.8c.07,0,.12,0,.17,0a1.28,1.28,0,0,0,1.13,0,2.64,2.64,0,0,0,1.19-1.41c.37-.58,1.06.42,1,.39s-1,0-.73.82a.69.69,0,0,0,.79.51h0c.17-.47.33-.95.47-1.45h0A1.88,1.88,0,0,0,127.78,377.5Zm-.66,1.72a1.59,1.59,0,0,1-1.12.18,4.17,4.17,0,0,1,1.73-1.49C127.8,378,128.3,378.34,127.12,379.22Z" style="fill:#BA68C8"></path><path d="M115.1,381l-.13.2a.57.57,0,0,1,.33.47c0,.35-1.13,0-1.13-.08a4.89,4.89,0,0,0,1.24-2.44,1.89,1.89,0,0,0-1.87-1.82.84.84,0,0,0-.9.87.7.7,0,0,0,.67.66c.86.09.72-.78.65-.88s1.07.4.58.88a2.59,2.59,0,0,0-1.12,1.47,1.18,1.18,0,0,0,.21,1.1s.07.09,0,.17-.66.51-.72.47,0-.13,0-.24a2.27,2.27,0,0,0-.08-1.08c-.14-.31-1-.74-1.1-.74-.22.1.12.5.06.55s-.19.05-.68-.06-.93.26-.83.49.87.13.89.17-.16.33-.13.35.85.09,1.09.21.36.23.36.4-.3.31-.67.37a2.22,2.22,0,0,1-.91-.05s-1.51-.65-1.1.37-.71,0-.81.43.41.72,1.14.47-.06.53.2.75c.54.47,1.55-.89,1.55-.89a4.33,4.33,0,0,1,.38-.64c.18-.27.38-.42.53-.41s.31.2.3.4-.39.7-.39.72c-.25.16.34.09.37.13a.23.23,0,0,1-.06.21,3.71,3.71,0,0,0-.53.35.27.27,0,0,0,0,.42.42.42,0,0,0,.47-.09,4.21,4.21,0,0,0,.3-.49c0-.11.12-.14.17-.14s.3.41.33.45c.22.22.76-.63.76-1,0-.58-1.07-1.18-1.07-1.2a2,2,0,0,1,.52-.43s1.44.5,1.59-.12C115.62,381.39,115.36,381.17,115.1,381Zm-1.2.3a1.8,1.8,0,0,1,0-1.14c.62-1.34,1.1-.92,1.15-.87A4.11,4.11,0,0,1,113.9,381.3Z" style="fill:#BA68C8"></path><path d="M79.41,377.5a4.71,4.71,0,0,0-2.12,1.72s-.66-1-.32-1.09a.54.54,0,0,1,.52.22l.17-.17c-.21-.22-.48-.43-.77-.3-.57.28.21,1.56.22,1.58a2,2,0,0,1-.32.6s-.83-.93-1.39-.8a1.75,1.75,0,0,0-.79.59c-.12.16-.17.3-.06.36l.22.08c.14,0,.27.1.28.15s0,.13-.1.21h0l.18.43a1.44,1.44,0,0,1,.09-.26.26.26,0,0,1,.19-.09s.11.62.21.33c0,0,.37-.46.61-.53s.42,0,.47.23-.07.35-.3.59a3.72,3.72,0,0,1-.54.49,3.06,3.06,0,0,0-.24.31l.28.53c.1.17.19.34.3.52s.25.43.37.63c0-.1.11-.16.46-.1,1.08.19.13-1.14.13-1.14a2.43,2.43,0,0,1-.23-.9c0-.37,0-.69.22-.72s.29,0,.47.26.37,1,.43,1,.24-.2.31-.19.26.81.35.83c.26,0,.44-.56.31-.91s-.24-.62-.2-.65.5.18.55-.06c0,0-.61-.85-1-.93a2.3,2.3,0,0,0-1.07.15c-.1,0-.21.05-.25,0a3.74,3.74,0,0,1,.33-.8c.06,0,.12,0,.17,0a1.26,1.26,0,0,0,1.12,0,2.62,2.62,0,0,0,1.2-1.41c.37-.58,1.06.42,1,.39s-1,0-.73.82a.68.68,0,0,0,.78.51.85.85,0,0,0,.67-1.05A1.9,1.9,0,0,0,79.41,377.5Zm-.66,1.72a1.61,1.61,0,0,1-1.13.18,4.11,4.11,0,0,1,1.74-1.49C79.43,378,79.93,378.34,78.75,379.22Z" style="fill:#BA68C8"></path><circle cx="101.98" cy="336.57" r="2.19" style="fill:#fff"></circle><path d="M102,334.38a2.44,2.44,0,1,1,0,4.87,2.48,2.48,0,0,1-1.85-.83,2.43,2.43,0,0,1-.59-1.85A2.46,2.46,0,0,1,102,334.38Zm0,0a2,2,0,0,0-1.5.69,1.94,1.94,0,0,0-.44,1.5,2,2,0,0,0,1.94,1.68,2,2,0,0,0,1.94-1.68,1.87,1.87,0,0,0-.44-1.5A2,2,0,0,0,102,334.38Z" style="fill:#263238"></path><path d="M116.56,345.54v3H87.41v-3h1.88s4-7.63,12.69-7.63,12.7,7.63,12.7,7.63Z" style="fill:#fff"></path><path d="M116.56,345.54l.09,3v.09h-.09c-4.86.14-9.72.22-14.58.29s-9.71.06-14.57.1h-.48v-.48l0-3v-.49h2.38l-.44.26a16.61,16.61,0,0,1,5.53-5.68,13.92,13.92,0,0,1,7.6-2.11,14.08,14.08,0,0,1,7.5,2.27,16.2,16.2,0,0,1,5.26,5.72l-.06,0Zm0,0-1.88.07h0l0,0a16.25,16.25,0,0,0-5.42-5.33A13.44,13.44,0,0,0,102,338.3a13.79,13.79,0,0,0-7.12,2.1,15.8,15.8,0,0,0-5.14,5.37l-.15.27H87.41l.5-.5,0,3-.48-.48c4.86,0,9.72,0,14.57.1s9.72.14,14.58.28l-.1.1Z" style="fill:#263238"></path><path d="M91.1,345.67c1.82-.15,3.63-.23,5.44-.29s3.63-.08,5.44-.08,3.63,0,5.44.08,3.63.13,5.44.29c-1.81.16-3.62.23-5.44.29s-3.62.08-5.44.08-3.62,0-5.44-.08S92.92,345.82,91.1,345.67Z" style="fill:#263238"></path><path d="M91.1,393.39c1.82-.16,3.63-.23,5.44-.29s3.63-.08,5.44-.09,3.63,0,5.44.09,3.63.13,5.44.29c-1.81.16-3.62.23-5.44.29s-3.62.08-5.44.08-3.62,0-5.44-.08S92.92,393.54,91.1,393.39Z" style="fill:#263238"></path></g></svg>