<?xml version="1.0" encoding="iso-8859-1"?>
<!-- Generator: Adobe Illustrator 16.0.0, SVG Export Plug-In . SVG Version: 6.00 Build 0)  -->
<!DOCTYPE svg PUBLIC "-//W3C//DTD SVG 1.1//EN" "http://www.w3.org/Graphics/SVG/1.1/DTD/svg11.dtd">
<svg version="1.1" id="Capa_1" xmlns="http://www.w3.org/2000/svg" xmlns:xlink="http://www.w3.org/1999/xlink" x="0px" y="0px"
	 width="46.666px" height="46.666px" viewBox="0 0 46.666 46.666" style="enable-background:new 0 0 46.666 46.666;"
	 xml:space="preserve">
<g>
	<path d="M26.238,21.031c0,0.932-0.754,1.687-1.688,1.687h-0.443l-3.387,20.25c0.883,0.056,1.581,0.781,1.581,1.677
		c0,0.934-0.754,1.688-1.686,1.688H5.622c-0.931,0-1.687-0.754-1.687-1.688c0-0.896,0.699-1.621,1.582-1.677L2.133,22.717H1.686
		C0.756,22.717,0,21.962,0,21.03c0-0.932,0.756-1.688,1.686-1.688h1.875h0.922v-4.723c0-1.553,1.261-2.811,2.813-2.811h0.979
		c-1.049-1.16-1.692-2.692-1.692-4.379c0-3.609,2.928-6.535,6.537-6.535c3.608,0,6.534,2.926,6.534,6.535
		c0,1.687-0.645,3.219-1.692,4.379H18.9c1.551,0,2.811,1.258,2.811,2.811v4.723h0.967h1.875
		C25.484,19.344,26.238,20.1,26.238,21.031z M46.666,8.861c0,4.701-4.793,8.526-10.684,8.526c-2.482,0-4.893-0.695-6.807-1.962
		l-5.331,0.871c-0.24,0.044-0.476-0.078-0.587-0.29c-0.112-0.212-0.079-0.473,0.084-0.648l2.867-3.065
		c-0.604-1.09-0.91-2.242-0.91-3.432c0-4.702,4.793-8.527,10.684-8.527S46.666,4.16,46.666,8.861z M41.605,12.791
		c0-0.621-0.502-1.125-1.125-1.125h-9.135c-0.623,0-1.125,0.504-1.125,1.125s0.502,1.124,1.125,1.124h9.135
		C41.104,13.916,41.605,13.413,41.605,12.791z M41.605,9.138c0-0.621-0.502-1.125-1.125-1.125h-9.135
		c-0.623,0-1.125,0.504-1.125,1.125c0,0.62,0.502,1.124,1.125,1.124h9.135C41.104,10.261,41.605,9.757,41.605,9.138z M41.605,5.481
		c0-0.62-0.502-1.124-1.125-1.124h-9.135c-0.623,0-1.125,0.504-1.125,1.124c0,0.621,0.502,1.124,1.125,1.124h9.135
		C41.104,6.605,41.605,6.104,41.605,5.481z"/>
</g>
<g>
</g>
<g>
</g>
<g>
</g>
<g>
</g>
<g>
</g>
<g>
</g>
<g>
</g>
<g>
</g>
<g>
</g>
<g>
</g>
<g>
</g>
<g>
</g>
<g>
</g>
<g>
</g>
<g>
</g>
</svg>
